<svg width="383" height="454" viewBox="0 0 383 454" fill="none" xmlns="http://www.w3.org/2000/svg">
<mask id="path-1-inside-1_2905_3569" fill="white">
<path d="M0 30C0 13.4315 13.4315 0 30 0H353C369.569 0 383 13.4315 383 30V454H0V30Z"/>
</mask>
<path d="M0 30C0 13.4315 13.4315 0 30 0H353C369.569 0 383 13.4315 383 30V454H0V30Z" fill="white"/>
<path d="M-9 30C-9 8.46089 8.46089 -9 30 -9H353C374.539 -9 392 8.46089 392 30H374C374 18.402 364.598 9 353 9H30C18.402 9 9 18.402 9 30H-9ZM383 454H0H383ZM-9 454V30C-9 8.46089 8.46089 -9 30 -9V9C18.402 9 9 18.402 9 30V454H-9ZM353 -9C374.539 -9 392 8.46089 392 30V454H374V30C374 18.402 364.598 9 353 9V-9Z" fill="#1A1C1F" mask="url(#path-1-inside-1_2905_3569)"/>
<path d="M140 12C140 7.58172 143.582 4 148 4H238C242.418 4 246 7.58172 246 12C246 16.4183 242.418 20 238 20H148C143.582 20 140 16.4183 140 12Z" fill="#1A1C1F"/>
<path d="M58.4883 139.454H59.7022L65.4388 131.186L64.6064 131.623H65.2446V139.454H66.4793V129.444H65.2654L59.5357 137.741L60.3612 137.304H59.723V129.444H58.4883V139.454ZM69.0112 139.454H72.1951C72.7316 139.454 73.1894 139.366 73.5686 139.191C73.9524 139.01 74.2461 138.76 74.4495 138.441C74.653 138.118 74.7548 137.741 74.7548 137.311V137.297C74.7548 137.005 74.69 136.744 74.5605 136.513C74.4357 136.277 74.2576 136.083 74.0264 135.93C73.7952 135.773 73.52 135.674 73.2009 135.632V135.521C73.5524 135.447 73.8437 135.257 74.075 134.952C74.3062 134.642 74.4218 134.302 74.4218 133.933V133.919C74.4218 133.331 74.2253 132.862 73.8322 132.511C73.4391 132.154 72.8888 131.976 72.1813 131.976H69.0112V139.454ZM70.2182 138.455V136.138H71.9177C72.4541 136.138 72.8564 136.229 73.1246 136.409C73.3929 136.589 73.527 136.878 73.527 137.276V137.29C73.527 137.664 73.4114 137.953 73.1801 138.157C72.9489 138.356 72.6044 138.455 72.1466 138.455H70.2182ZM70.2182 135.139V132.975H72.0078C72.4287 132.975 72.7362 133.075 72.9304 133.274C73.1246 133.468 73.2218 133.724 73.2218 134.044V134.057C73.2218 134.409 73.1085 134.677 72.8819 134.862C72.6553 135.047 72.2992 135.139 71.8136 135.139H70.2182ZM78.8543 139.586C79.1919 139.586 79.5017 139.54 79.7838 139.447C80.0659 139.35 80.318 139.209 80.5399 139.024C80.7665 138.839 80.9584 138.615 81.1157 138.351H81.2267V139.454H82.4336V134.335C82.4336 133.817 82.3227 133.373 82.1007 133.003C81.8833 132.628 81.5619 132.342 81.1365 132.143C80.7157 131.944 80.2 131.845 79.5896 131.845C79.0578 131.845 78.5838 131.928 78.1676 132.094C77.7514 132.256 77.4115 132.485 77.1479 132.781C76.8889 133.072 76.7271 133.415 76.6623 133.808L76.6554 133.849H77.8624L77.8693 133.828C77.9664 133.537 78.1583 133.313 78.4451 133.156C78.7318 132.994 79.0994 132.913 79.548 132.913C80.1076 132.913 80.5261 133.035 80.8035 133.28C81.0856 133.521 81.2267 133.872 81.2267 134.335V136.666C81.2267 137.022 81.1342 137.341 80.9492 137.623C80.7688 137.905 80.5191 138.129 80.2 138.296C79.881 138.458 79.5156 138.538 79.104 138.538C78.6693 138.538 78.3086 138.434 78.0219 138.226C77.7352 138.014 77.5919 137.718 77.5919 137.338V137.325C77.5919 136.955 77.7213 136.668 77.9803 136.464C78.2439 136.261 78.6601 136.143 79.2289 136.111L81.8302 135.944V134.98L79.0832 135.146C78.5052 135.179 78.0127 135.285 77.6057 135.466C77.1988 135.646 76.8889 135.896 76.6762 136.215C76.4635 136.529 76.3571 136.908 76.3571 137.352V137.366C76.3571 137.819 76.4658 138.212 76.6832 138.545C76.9051 138.878 77.2034 139.135 77.578 139.315C77.9572 139.496 78.3826 139.586 78.8543 139.586ZM89.6825 139.454H90.8894V131.976H89.6825V135.07H85.9783V131.976H84.7713V139.454H85.9783V136.069H89.6825V139.454ZM98.9568 134.904H100.365C101.123 134.904 101.708 135.066 102.12 135.389C102.536 135.713 102.744 136.155 102.744 136.714V136.728C102.744 137.084 102.647 137.399 102.453 137.671C102.259 137.944 101.986 138.157 101.634 138.31C101.287 138.462 100.881 138.538 100.413 138.538C99.9649 138.538 99.5672 138.474 99.2204 138.344C98.8735 138.21 98.5938 138.021 98.381 137.775C98.1729 137.53 98.0481 137.239 98.0064 136.901L97.9995 136.846H96.7648L96.7717 136.929C96.818 137.489 97.0006 137.977 97.3197 138.393C97.6388 138.804 98.0643 139.123 98.5961 139.35C99.1279 139.577 99.7383 139.69 100.427 139.69C101.098 139.69 101.704 139.56 102.245 139.301C102.79 139.043 103.223 138.693 103.542 138.254C103.861 137.81 104.021 137.313 104.021 136.763V136.749C104.021 136.032 103.81 135.461 103.389 135.035C102.968 134.605 102.439 134.358 101.801 134.293V134.182C102.356 134.048 102.804 133.771 103.147 133.35C103.493 132.929 103.667 132.446 103.667 131.9V131.886C103.667 131.364 103.528 130.901 103.251 130.499C102.978 130.097 102.601 129.782 102.12 129.555C101.639 129.324 101.084 129.209 100.455 129.209C99.8077 129.209 99.2389 129.317 98.7487 129.535C98.2631 129.747 97.8747 130.055 97.5833 130.457C97.292 130.855 97.1162 131.329 97.0561 131.879L97.0423 132.011H98.277L98.2839 131.956C98.3255 131.618 98.4365 131.331 98.6169 131.095C98.8019 130.86 99.0446 130.679 99.3452 130.554C99.6504 130.425 100.004 130.36 100.407 130.36C100.827 130.36 101.183 130.427 101.475 130.561C101.771 130.695 101.997 130.885 102.155 131.13C102.312 131.371 102.39 131.655 102.39 131.983V131.997C102.39 132.52 102.201 132.948 101.822 133.28C101.447 133.613 100.943 133.78 100.309 133.78H98.9568V134.904ZM108.03 139.586C108.368 139.586 108.677 139.54 108.959 139.447C109.242 139.35 109.494 139.209 109.716 139.024C109.942 138.839 110.134 138.615 110.291 138.351H110.402V139.454H111.609V134.335C111.609 133.817 111.498 133.373 111.276 133.003C111.059 132.628 110.738 132.342 110.312 132.143C109.891 131.944 109.376 131.845 108.765 131.845C108.233 131.845 107.759 131.928 107.343 132.094C106.927 132.256 106.587 132.485 106.324 132.781C106.065 133.072 105.903 133.415 105.838 133.808L105.831 133.849H107.038L107.045 133.828C107.142 133.537 107.334 133.313 107.621 133.156C107.907 132.994 108.275 132.913 108.724 132.913C109.283 132.913 109.702 133.035 109.979 133.28C110.261 133.521 110.402 133.872 110.402 134.335V136.666C110.402 137.022 110.31 137.341 110.125 137.623C109.944 137.905 109.695 138.129 109.376 138.296C109.057 138.458 108.691 138.538 108.28 138.538C107.845 138.538 107.484 138.434 107.198 138.226C106.911 138.014 106.767 137.718 106.767 137.338V137.325C106.767 136.955 106.897 136.668 107.156 136.464C107.419 136.261 107.836 136.143 108.405 136.111L111.006 135.944V134.98L108.259 135.146C107.681 135.179 107.188 135.285 106.781 135.466C106.374 135.646 106.065 135.896 105.852 136.215C105.639 136.529 105.533 136.908 105.533 137.352V137.366C105.533 137.819 105.641 138.212 105.859 138.545C106.081 138.878 106.379 139.135 106.754 139.315C107.133 139.496 107.558 139.586 108.03 139.586ZM113.947 139.454H115.154L119.142 133.433L118.324 133.877H118.962V139.454H120.169V131.976H118.962L114.974 137.997L115.792 137.553H115.154V131.976H113.947V139.454ZM117.061 130.936C117.538 130.936 117.954 130.836 118.31 130.638C118.666 130.434 118.944 130.161 119.142 129.819C119.341 129.477 119.441 129.091 119.441 128.661H118.359C118.359 129.04 118.245 129.377 118.019 129.673C117.792 129.969 117.473 130.117 117.061 130.117C116.659 130.117 116.342 129.969 116.111 129.673C115.88 129.377 115.764 129.04 115.764 128.661H114.682C114.682 129.091 114.782 129.477 114.98 129.819C115.179 130.161 115.457 130.434 115.813 130.638C116.169 130.836 116.585 130.936 117.061 130.936ZM128.597 131.976H127.39V138.455H123.755V131.976H122.548V139.454H128.597V131.976ZM128.639 141.431H129.79V138.455H127.404V139.454H128.639V141.431ZM134.417 139.586C134.856 139.586 135.252 139.53 135.603 139.419C135.959 139.304 136.267 139.151 136.526 138.962C136.785 138.767 136.995 138.552 137.157 138.316C137.323 138.076 137.439 137.829 137.504 137.574L137.518 137.519H136.311L136.283 137.581C136.218 137.729 136.105 137.875 135.943 138.018C135.781 138.162 135.575 138.279 135.326 138.372C135.076 138.464 134.782 138.511 134.445 138.511C133.992 138.511 133.598 138.411 133.265 138.212C132.933 138.009 132.676 137.72 132.496 137.345C132.315 136.966 132.225 136.511 132.225 135.979V135.5C132.225 134.941 132.317 134.469 132.502 134.085C132.687 133.701 132.937 133.412 133.252 133.218C133.571 133.019 133.931 132.92 134.334 132.92C134.736 132.92 135.092 133.015 135.402 133.204C135.712 133.389 135.955 133.671 136.13 134.05C136.306 134.43 136.394 134.913 136.394 135.5V135.979L136.99 135.098H131.615V136.062H137.608V135.59C137.608 134.846 137.476 134.194 137.212 133.634C136.953 133.07 136.579 132.631 136.089 132.316C135.603 132.002 135.02 131.845 134.341 131.845C133.666 131.845 133.076 132.009 132.572 132.337C132.068 132.665 131.677 133.121 131.4 133.704C131.127 134.286 130.99 134.964 130.99 135.736V135.743C130.99 136.525 131.127 137.204 131.4 137.782C131.677 138.356 132.07 138.8 132.579 139.114C133.092 139.429 133.705 139.586 134.417 139.586ZM139.613 139.454H142.796C143.333 139.454 143.791 139.366 144.17 139.191C144.554 139.01 144.847 138.76 145.051 138.441C145.254 138.118 145.356 137.741 145.356 137.311V137.297C145.356 137.005 145.291 136.744 145.162 136.513C145.037 136.277 144.859 136.083 144.628 135.93C144.397 135.773 144.121 135.674 143.802 135.632V135.521C144.154 135.447 144.445 135.257 144.676 134.952C144.908 134.642 145.023 134.302 145.023 133.933V133.919C145.023 133.331 144.827 132.862 144.434 132.511C144.04 132.154 143.49 131.976 142.783 131.976H139.613V139.454ZM140.82 138.455V136.138H142.519C143.055 136.138 143.458 136.229 143.726 136.409C143.994 136.589 144.128 136.878 144.128 137.276V137.29C144.128 137.664 144.013 137.953 143.781 138.157C143.55 138.356 143.206 138.455 142.748 138.455H140.82ZM140.82 135.139V132.975H142.609C143.03 132.975 143.338 133.075 143.532 133.274C143.726 133.468 143.823 133.724 143.823 134.044V134.057C143.823 134.409 143.71 134.677 143.483 134.862C143.257 135.047 142.901 135.139 142.415 135.139H140.82Z" fill="black" fill-opacity="0.4"/>
<rect x="41.3229" y="115.152" width="302.852" height="38.0987" rx="10.009" stroke="black" stroke-opacity="0.2" stroke-width="0.64574"/>
<path d="M42.97 102H46.2511C46.9632 102 47.5713 101.889 48.0754 101.667C48.5795 101.44 48.9656 101.119 49.2338 100.703C49.5067 100.282 49.6431 99.7803 49.6431 99.1976V99.1837C49.6431 98.7444 49.5506 98.3536 49.3656 98.0114C49.1853 97.6646 48.9286 97.3825 48.5956 97.1651C48.2627 96.9478 47.8673 96.8114 47.4095 96.7559V96.6449C47.7332 96.5848 48.0245 96.4507 48.2835 96.2426C48.5425 96.0345 48.7483 95.7778 48.9009 95.4726C49.0581 95.1674 49.1367 94.8414 49.1367 94.4945V94.4807C49.1367 93.972 49.0165 93.5326 48.776 93.1627C48.5402 92.7881 48.2003 92.4991 47.7563 92.2956C47.317 92.0921 46.7898 91.9904 46.1747 91.9904H42.97V93.0933H45.9112C46.5308 93.0933 47.0118 93.2344 47.354 93.5165C47.7008 93.7939 47.8742 94.187 47.8742 94.6957V94.7096C47.8742 95.2368 47.6823 95.6345 47.2985 95.9027C46.9193 96.1709 46.3505 96.305 45.5921 96.305H42.97V97.3802H45.9458C46.4776 97.3802 46.9216 97.4449 47.2777 97.5744C47.6384 97.7039 47.9089 97.8981 48.0893 98.1571C48.2696 98.4161 48.3598 98.7375 48.3598 99.1213V99.1352C48.3598 99.7086 48.1656 100.146 47.7771 100.446C47.3887 100.747 46.8175 100.897 46.0638 100.897H42.97V102ZM42.3457 102H43.5943V91.9904H42.3457V102ZM51.6616 102H54.8456C55.382 102 55.8398 101.912 56.219 101.736C56.6029 101.556 56.8965 101.306 57.1 100.987C57.3035 100.664 57.4052 100.287 57.4052 99.8566V99.8427C57.4052 99.5514 57.3405 99.2901 57.211 99.0589C57.0861 98.823 56.9081 98.6288 56.6769 98.4762C56.4456 98.3189 56.1705 98.2195 55.8514 98.1779V98.0669C56.2028 97.9929 56.4942 97.8033 56.7254 97.4981C56.9566 97.1883 57.0722 96.8484 57.0722 96.4784V96.4645C57.0722 95.8772 56.8757 95.4079 56.4826 95.0564C56.0896 94.7003 55.5392 94.5223 54.8317 94.5223H51.6616V102ZM52.8686 101.001V98.6843H54.5681C55.1045 98.6843 55.5069 98.7745 55.7751 98.9548C56.0433 99.1352 56.1774 99.4242 56.1774 99.8219V99.8358C56.1774 100.21 56.0618 100.499 55.8306 100.703C55.5994 100.902 55.2548 101.001 54.797 101.001H52.8686ZM52.8686 97.6854V95.5212H54.6583C55.0791 95.5212 55.3866 95.6206 55.5809 95.8194C55.7751 96.0137 55.8722 96.2703 55.8722 96.5894V96.6033C55.8722 96.9547 55.7589 97.223 55.5323 97.4079C55.3057 97.5929 54.9496 97.6854 54.4641 97.6854H52.8686ZM62.4343 102.132C62.8736 102.132 63.269 102.076 63.6205 101.965C63.9765 101.85 64.2841 101.697 64.543 101.507C64.802 101.313 65.0124 101.098 65.1743 100.862C65.3407 100.622 65.4564 100.375 65.5211 100.12L65.535 100.065H64.328L64.3002 100.127C64.2355 100.275 64.1222 100.421 63.9603 100.564C63.7985 100.707 63.5927 100.825 63.343 100.918C63.0933 101.01 62.7996 101.057 62.462 101.057C62.0088 101.057 61.6158 100.957 61.2828 100.758C60.9498 100.555 60.6932 100.266 60.5128 99.8913C60.3325 99.5121 60.2423 99.0565 60.2423 98.5247V98.0461C60.2423 97.4865 60.3348 97.0149 60.5198 96.631C60.7047 96.2472 60.9545 95.9582 61.2689 95.7639C61.588 95.5651 61.9487 95.4657 62.351 95.4657C62.7534 95.4657 63.1094 95.5605 63.4193 95.7501C63.7291 95.935 63.9719 96.2171 64.1476 96.5963C64.3234 96.9755 64.4112 97.4588 64.4112 98.0461V98.5247L65.0078 97.6438H59.6319V98.608H65.6251V98.1363C65.6251 97.3917 65.4933 96.7397 65.2298 96.1801C64.9708 95.616 64.5962 95.1766 64.106 94.8622C63.6205 94.5477 63.0378 94.3905 62.358 94.3905C61.6828 94.3905 61.0932 94.5547 60.5891 94.883C60.0851 95.2113 59.6943 95.6668 59.4168 96.2495C59.144 96.8322 59.0076 97.5097 59.0076 98.2819V98.2889C59.0076 99.0704 59.144 99.7502 59.4168 100.328C59.6943 100.902 60.0874 101.346 60.5961 101.66C61.1094 101.975 61.7221 102.132 62.4343 102.132ZM67.7339 103.977V102H73.5815V103.977H74.7052V101.001H73.5121V94.5223H68.4137L68.1223 98.6912C68.09 99.1953 68.0021 99.6623 67.8588 100.092C67.7154 100.518 67.5073 100.821 67.2345 101.001H66.6102V103.977H67.7339ZM72.3052 101.001H68.6287V100.89C68.8044 100.659 68.9432 100.354 69.0449 99.9745C69.1467 99.5907 69.2137 99.1722 69.2461 98.719L69.4819 95.5212H72.3052V101.001ZM76.2729 102H77.4799L81.4685 95.979L80.65 96.4229H81.2881V102H82.4951V94.5223H81.2881L77.2995 100.543L78.1181 100.099H77.4799V94.5223H76.2729V102ZM90.2919 94.5223H84.2431V95.5212H86.664V102H87.871V95.5212H90.2919V94.5223ZM94.8146 102.132C95.2539 102.132 95.6493 102.076 96.0008 101.965C96.3569 101.85 96.6644 101.697 96.9234 101.507C97.1823 101.313 97.3927 101.098 97.5546 100.862C97.7211 100.622 97.8367 100.375 97.9014 100.12L97.9153 100.065H96.7083L96.6806 100.127C96.6158 100.275 96.5025 100.421 96.3407 100.564C96.1788 100.707 95.973 100.825 95.7233 100.918C95.4736 101.01 95.1799 101.057 94.8424 101.057C94.3892 101.057 93.9961 100.957 93.6631 100.758C93.3302 100.555 93.0735 100.266 92.8932 99.8913C92.7128 99.5121 92.6226 99.0565 92.6226 98.5247V98.0461C92.6226 97.4865 92.7151 97.0149 92.9001 96.631C93.0851 96.2472 93.3348 95.9582 93.6493 95.7639C93.9683 95.5651 94.329 95.4657 94.7314 95.4657C95.1337 95.4657 95.4898 95.5605 95.7996 95.7501C96.1095 95.935 96.3522 96.2171 96.528 96.5963C96.7037 96.9755 96.7916 97.4588 96.7916 98.0461V98.5247L97.3881 97.6438H92.0122V98.608H98.0055V98.1363C98.0055 97.3917 97.8737 96.7397 97.6101 96.1801C97.3511 95.616 96.9765 95.1766 96.4863 94.8622C96.0008 94.5477 95.4181 94.3905 94.7383 94.3905C94.0631 94.3905 93.4735 94.5547 92.9695 94.883C92.4654 95.2113 92.0746 95.6668 91.7972 96.2495C91.5243 96.8322 91.3879 97.5097 91.3879 98.2819V98.2889C91.3879 99.0704 91.5243 99.7502 91.7972 100.328C92.0746 100.902 92.4677 101.346 92.9764 101.66C93.4897 101.975 94.1025 102.132 94.8146 102.132ZM104.006 102H107.19C107.726 102 108.184 101.912 108.563 101.736C108.947 101.556 109.241 101.306 109.444 100.987C109.648 100.664 109.749 100.287 109.749 99.8566V99.8427C109.749 99.5514 109.685 99.2901 109.555 99.0589C109.43 98.823 109.252 98.6288 109.021 98.4762C108.79 98.3189 108.515 98.2195 108.195 98.1779V98.0669C108.547 97.9929 108.838 97.8033 109.069 97.4981C109.301 97.1883 109.416 96.8484 109.416 96.4784V96.4645C109.416 95.8772 109.22 95.4079 108.827 95.0564C108.434 94.7003 107.883 94.5223 107.176 94.5223H104.006V102ZM105.213 101.001V98.6843H106.912C107.449 98.6843 107.851 98.7745 108.119 98.9548C108.387 99.1352 108.521 99.4242 108.521 99.8219V99.8358C108.521 100.21 108.406 100.499 108.175 100.703C107.943 100.902 107.599 101.001 107.141 101.001H105.213ZM105.213 97.6854V95.5212H107.002C107.423 95.5212 107.731 95.6206 107.925 95.8194C108.119 96.0137 108.216 96.2703 108.216 96.5894V96.6033C108.216 96.9547 108.103 97.223 107.876 97.4079C107.65 97.5929 107.294 97.6854 106.808 97.6854H105.213ZM113.849 102.132C114.186 102.132 114.496 102.086 114.778 101.993C115.06 101.896 115.312 101.755 115.534 101.57C115.761 101.385 115.953 101.161 116.11 100.897H116.221V102H117.428V96.8807C117.428 96.3628 117.317 95.9189 117.095 95.5489C116.878 95.1743 116.556 94.8876 116.131 94.6888C115.71 94.4899 115.195 94.3905 114.584 94.3905C114.052 94.3905 113.578 94.4737 113.162 94.6402C112.746 94.8021 112.406 95.031 112.142 95.3269C111.883 95.6183 111.722 95.9605 111.657 96.3536L111.65 96.3952H112.857L112.864 96.3744C112.961 96.083 113.153 95.8587 113.44 95.7015C113.726 95.5397 114.094 95.4587 114.542 95.4587C115.102 95.4587 115.521 95.5813 115.798 95.8264C116.08 96.0668 116.221 96.4183 116.221 96.8807V99.2115C116.221 99.5675 116.129 99.8866 115.944 100.169C115.763 100.451 115.514 100.675 115.195 100.842C114.875 101.003 114.51 101.084 114.099 101.084C113.664 101.084 113.303 100.98 113.016 100.772C112.73 100.559 112.586 100.264 112.586 99.8843V99.8704C112.586 99.5005 112.716 99.2138 112.975 99.0103C113.238 98.8068 113.655 98.6889 114.223 98.6565L116.825 98.49V97.5259L114.078 97.6923C113.5 97.7247 113.007 97.8311 112.6 98.0114C112.193 98.1918 111.883 98.4415 111.671 98.7606C111.458 99.075 111.352 99.4542 111.352 99.8982V99.9121C111.352 100.365 111.46 100.758 111.678 101.091C111.9 101.424 112.198 101.681 112.572 101.861C112.952 102.042 113.377 102.132 113.849 102.132ZM119.766 102H129.005V94.5223H127.798V101.001H124.989V94.5223H123.782V101.001H120.973V94.5223H119.766V102ZM134.437 102.132C134.876 102.132 135.272 102.076 135.623 101.965C135.979 101.85 136.287 101.697 136.546 101.507C136.805 101.313 137.015 101.098 137.177 100.862C137.343 100.622 137.459 100.375 137.524 100.12L137.538 100.065H136.331L136.303 100.127C136.238 100.275 136.125 100.421 135.963 100.564C135.801 100.707 135.595 100.825 135.346 100.918C135.096 101.01 134.802 101.057 134.465 101.057C134.011 101.057 133.618 100.957 133.285 100.758C132.952 100.555 132.696 100.266 132.515 99.8913C132.335 99.5121 132.245 99.0565 132.245 98.5247V98.0461C132.245 97.4865 132.337 97.0149 132.522 96.631C132.707 96.2472 132.957 95.9582 133.271 95.7639C133.591 95.5651 133.951 95.4657 134.354 95.4657C134.756 95.4657 135.112 95.5605 135.422 95.7501C135.732 95.935 135.974 96.2171 136.15 96.5963C136.326 96.9755 136.414 97.4588 136.414 98.0461V98.5247L137.01 97.6438H131.634V98.608H137.628V98.1363C137.628 97.3917 137.496 96.7397 137.232 96.1801C136.973 95.616 136.599 95.1766 136.109 94.8622C135.623 94.5477 135.04 94.3905 134.361 94.3905C133.685 94.3905 133.096 94.5547 132.592 94.883C132.088 95.2113 131.697 95.6668 131.419 96.2495C131.147 96.8322 131.01 97.5097 131.01 98.2819V98.2889C131.01 99.0704 131.147 99.7502 131.419 100.328C131.697 100.902 132.09 101.346 132.599 101.66C133.112 101.975 133.725 102.132 134.437 102.132ZM143.787 102H145.001L150.738 93.7315L149.906 94.1685H150.544V102H151.778V91.9904H150.565L144.835 100.287L145.66 99.8496H145.022V91.9904H143.787V102ZM155.517 102V96.6796H155.649L158.001 101.792H158.93L161.289 96.6796H161.42V102H162.627V94.5223H161.226L158.549 100.321H158.438L155.774 94.5223H154.31V102H155.517ZM168.974 102H170.181V94.5223H167.58C167.011 94.5223 166.517 94.6217 166.096 94.8206C165.675 95.0194 165.349 95.3038 165.118 95.6738C164.886 96.0391 164.771 96.4784 164.771 96.9917V97.0056C164.771 97.5143 164.921 97.9536 165.222 98.3236C165.522 98.6935 165.936 98.9525 166.463 99.1005L164.375 102H165.797L167.705 99.3224H168.974V102ZM167.58 98.3236C167.09 98.3236 166.704 98.1987 166.422 97.949C166.144 97.6946 166.006 97.3709 166.006 96.9779V96.964C166.006 96.5108 166.144 96.157 166.422 95.9027C166.704 95.6483 167.09 95.5212 167.58 95.5212H168.974V98.3236H167.58Z" fill="black"/>
<path d="M58.4883 225.74H59.6536V218.096H60.2641L58.8698 216.008L62.8931 225.74H63.9474L67.9776 216.008L66.5764 218.096H67.1869V225.74H68.3522V215.731H66.9025L63.4757 224.082H63.3648L59.9381 215.731H58.4883V225.74ZM73.964 225.872C74.6761 225.872 75.2889 225.717 75.8022 225.407C76.3155 225.093 76.7109 224.647 76.9884 224.068C77.2705 223.49 77.4115 222.804 77.4115 222.008V221.994C77.4115 221.194 77.2705 220.505 76.9884 219.927C76.7109 219.349 76.3155 218.905 75.8022 218.595C75.2889 218.286 74.6761 218.131 73.964 218.131C73.2564 218.131 72.6437 218.286 72.1258 218.595C71.6125 218.905 71.2148 219.349 70.9327 219.927C70.6552 220.505 70.5165 221.194 70.5165 221.994V222.008C70.5165 222.804 70.6552 223.49 70.9327 224.068C71.2148 224.647 71.6125 225.093 72.1258 225.407C72.6437 225.717 73.2564 225.872 73.964 225.872ZM73.964 224.804C73.4923 224.804 73.0923 224.693 72.7639 224.471C72.4356 224.249 72.1836 223.93 72.0078 223.514C71.8367 223.097 71.7512 222.596 71.7512 222.008V221.994C71.7512 221.403 71.8367 220.898 72.0078 220.482C72.1836 220.066 72.4356 219.749 72.7639 219.532C73.0923 219.31 73.4923 219.199 73.964 219.199C74.4357 219.199 74.8357 219.31 75.164 219.532C75.4924 219.749 75.7421 220.066 75.9132 220.482C76.0889 220.898 76.1768 221.403 76.1768 221.994V222.008C76.1768 222.596 76.0889 223.097 75.9132 223.514C75.7421 223.93 75.4924 224.249 75.164 224.471C74.8357 224.693 74.4357 224.804 73.964 224.804ZM82.4822 225.872C83.0834 225.872 83.5967 225.773 84.0221 225.574C84.4476 225.375 84.7898 225.102 85.0488 224.755C85.3077 224.404 85.4881 224.004 85.5898 223.555L85.6037 223.479L84.4106 223.486L84.3967 223.527C84.258 223.944 84.0291 224.26 83.71 224.478C83.3909 224.695 82.9793 224.804 82.4753 224.804C82.0313 224.804 81.6452 224.688 81.3168 224.457C80.9885 224.226 80.7342 223.9 80.5538 223.479C80.3735 223.053 80.2833 222.554 80.2833 221.981V221.967C80.2833 221.403 80.3711 220.915 80.5469 220.503C80.7272 220.087 80.9816 219.765 81.3099 219.539C81.6382 219.312 82.0267 219.199 82.4753 219.199C83.0117 219.199 83.4441 219.328 83.7724 219.587C84.1008 219.846 84.3112 220.161 84.4037 220.531L84.4106 220.552H85.6106L85.6037 220.51C85.5297 220.066 85.3609 219.666 85.0973 219.31C84.8337 218.949 84.4823 218.663 84.0429 218.45C83.6036 218.237 83.0811 218.131 82.4753 218.131C81.777 218.131 81.1712 218.29 80.6579 218.609C80.1445 218.924 79.7468 219.368 79.4648 219.941C79.1873 220.515 79.0486 221.19 79.0486 221.967V221.981C79.0486 222.771 79.1896 223.458 79.4717 224.041C79.7538 224.623 80.1515 225.074 80.6648 225.393C81.1781 225.712 81.7839 225.872 82.4822 225.872ZM89.0928 222.334L92.0201 225.74H93.567L89.9738 221.675V221.89L93.4352 218.263H91.9854L89.0928 221.391H88.7113V218.263H87.5043V225.74H88.7113V222.334H89.0928ZM95.2318 225.74H98.4157C98.9521 225.74 99.41 225.652 99.7892 225.477C100.173 225.296 100.467 225.047 100.67 224.727C100.874 224.404 100.975 224.027 100.975 223.597V223.583C100.975 223.292 100.911 223.03 100.781 222.799C100.656 222.563 100.478 222.369 100.247 222.216C100.016 222.059 99.7406 221.96 99.4215 221.918V221.807C99.773 221.733 100.064 221.544 100.296 221.238C100.527 220.929 100.642 220.589 100.642 220.219V220.205C100.642 219.617 100.446 219.148 100.053 218.797C99.6597 218.441 99.1094 218.263 98.4018 218.263H95.2318V225.74ZM96.4388 224.741V222.425H98.1382C98.6747 222.425 99.077 222.515 99.3452 222.695C99.6134 222.875 99.7476 223.164 99.7476 223.562V223.576C99.7476 223.951 99.6319 224.24 99.4007 224.443C99.1695 224.642 98.825 224.741 98.3672 224.741H96.4388ZM96.4388 221.426V219.261H98.2284C98.6492 219.261 98.9568 219.361 99.151 219.56C99.3452 219.754 99.4423 220.011 99.4423 220.33V220.344C99.4423 220.695 99.329 220.963 99.1024 221.148C98.8758 221.333 98.5198 221.426 98.0342 221.426H96.4388ZM105.075 225.872C105.412 225.872 105.722 225.826 106.004 225.733C106.287 225.636 106.539 225.495 106.761 225.31C106.987 225.125 107.179 224.901 107.336 224.637H107.447V225.74H108.654V220.621C108.654 220.103 108.543 219.659 108.321 219.289C108.104 218.915 107.783 218.628 107.357 218.429C106.936 218.23 106.421 218.131 105.81 218.131C105.278 218.131 104.804 218.214 104.388 218.38C103.972 218.542 103.632 218.771 103.368 219.067C103.11 219.359 102.948 219.701 102.883 220.094L102.876 220.135H104.083L104.09 220.115C104.187 219.823 104.379 219.599 104.666 219.442C104.952 219.28 105.32 219.199 105.769 219.199C106.328 219.199 106.747 219.322 107.024 219.567C107.306 219.807 107.447 220.159 107.447 220.621V222.952C107.447 223.308 107.355 223.627 107.17 223.909C106.989 224.191 106.74 224.415 106.421 224.582C106.102 224.744 105.736 224.825 105.325 224.825C104.89 224.825 104.529 224.721 104.243 224.512C103.956 224.3 103.812 224.004 103.812 223.625V223.611C103.812 223.241 103.942 222.954 104.201 222.751C104.464 222.547 104.881 222.429 105.449 222.397L108.051 222.23V221.266L105.304 221.433C104.726 221.465 104.233 221.571 103.826 221.752C103.419 221.932 103.11 222.182 102.897 222.501C102.684 222.815 102.578 223.194 102.578 223.638V223.652C102.578 224.105 102.686 224.499 102.904 224.832C103.126 225.164 103.424 225.421 103.799 225.602C104.178 225.782 104.603 225.872 105.075 225.872Z" fill="black" fill-opacity="0.4"/>
<path d="M327.321 216.802L320.925 223.493L314.53 216.802C314.415 216.683 314.262 216.616 314.102 216.616C313.942 216.616 313.789 216.683 313.675 216.802C313.619 216.861 313.575 216.93 313.545 217.007C313.515 217.083 313.5 217.166 313.5 217.249C313.5 217.332 313.515 217.414 313.545 217.491C313.575 217.567 313.619 217.637 313.675 217.695L320.479 224.814C320.598 224.939 320.758 225.009 320.925 225.009C321.092 225.009 321.252 224.939 321.372 224.814L328.176 217.696C328.232 217.638 328.276 217.569 328.306 217.492C328.336 217.415 328.352 217.332 328.352 217.249C328.352 217.165 328.336 217.083 328.306 217.006C328.276 216.929 328.232 216.859 328.176 216.801C328.062 216.681 327.908 216.614 327.749 216.614C327.589 216.614 327.435 216.681 327.321 216.801V216.802Z" fill="#1A1C1F"/>
<rect x="41.3229" y="201.44" width="302.852" height="38.0987" rx="10.009" stroke="black" stroke-opacity="0.2" stroke-width="0.64574"/>
<path d="M42.97 188.286H46.2511C46.9632 188.286 47.5713 188.175 48.0754 187.953C48.5795 187.727 48.9656 187.405 49.2338 186.989C49.5067 186.568 49.6431 186.066 49.6431 185.484V185.47C49.6431 185.031 49.5506 184.64 49.3656 184.298C49.1853 183.951 48.9286 183.669 48.5956 183.451C48.2627 183.234 47.8673 183.098 47.4095 183.042V182.931C47.7332 182.871 48.0245 182.737 48.2835 182.529C48.5425 182.321 48.7483 182.064 48.9009 181.759C49.0581 181.454 49.1367 181.127 49.1367 180.781V180.767C49.1367 180.258 49.0165 179.819 48.776 179.449C48.5402 179.074 48.2003 178.785 47.7563 178.582C47.317 178.378 46.7898 178.277 46.1747 178.277H42.97V179.379H45.9112C46.5308 179.379 47.0118 179.521 47.354 179.803C47.7008 180.08 47.8742 180.473 47.8742 180.982V180.996C47.8742 181.523 47.6823 181.921 47.2985 182.189C46.9193 182.457 46.3505 182.591 45.5921 182.591H42.97V183.666H45.9458C46.4776 183.666 46.9216 183.731 47.2777 183.861C47.6384 183.99 47.9089 184.184 48.0893 184.443C48.2696 184.702 48.3598 185.024 48.3598 185.407V185.421C48.3598 185.995 48.1656 186.432 47.7771 186.732C47.3887 187.033 46.8175 187.183 46.0638 187.183H42.97V188.286ZM42.3457 188.286H43.5943V178.277H42.3457V188.286ZM51.6616 188.286H54.3323C55.1878 188.286 55.8699 188.057 56.3786 187.599C56.8873 187.142 57.1416 186.527 57.1416 185.754V185.74C57.1416 184.968 56.8873 184.353 56.3786 183.895C55.8699 183.437 55.1878 183.208 54.3323 183.208H52.8686V180.808H51.6616V188.286ZM54.3323 184.207C54.8225 184.207 55.2109 184.346 55.4976 184.624C55.789 184.901 55.9346 185.273 55.9346 185.74V185.754C55.9346 186.217 55.7913 186.589 55.5046 186.871C55.2178 187.149 54.8271 187.287 54.3323 187.287H52.8686V184.207H54.3323ZM58.4457 188.286H59.6527V180.808H58.4457V188.286ZM65.1396 188.425C65.861 188.425 66.4807 188.27 66.9986 187.96C67.5212 187.65 67.9212 187.209 68.1986 186.635C68.4807 186.057 68.6218 185.373 68.6218 184.582V184.568C68.6218 183.814 68.4854 183.162 68.2125 182.612C67.9443 182.062 67.5628 181.636 67.068 181.336C66.5732 181.03 65.9905 180.878 65.3199 180.878C64.9454 180.878 64.5962 180.931 64.2725 181.037C63.9534 181.144 63.669 181.299 63.4193 181.502C63.1696 181.706 62.9592 181.958 62.7881 182.258H62.6771L62.6979 182.106C62.7904 181.426 62.943 180.875 63.1557 180.455C63.3684 180.034 63.6621 179.722 64.0367 179.518C64.4159 179.315 64.8945 179.201 65.4725 179.178L66.2356 179.144C66.6703 179.12 67.0657 179.07 67.4217 178.991C67.7778 178.908 68.0137 178.811 68.1293 178.7V177.631C67.8056 177.761 67.4749 177.858 67.1373 177.923C66.7998 177.983 66.4807 178.02 66.1801 178.034L65.4309 178.068C64.765 178.101 64.1916 178.235 63.7106 178.471C63.2343 178.707 62.8435 179.058 62.5383 179.525C62.2377 179.988 62.0158 180.577 61.8724 181.294C61.7291 182.006 61.6574 182.859 61.6574 183.854V183.867C61.6574 184.866 61.7869 185.703 62.0458 186.379C62.3094 187.054 62.7002 187.565 63.2181 187.912C63.7361 188.254 64.3765 188.425 65.1396 188.425ZM65.1396 187.357C64.6633 187.357 64.2563 187.248 63.9187 187.031C63.5858 186.809 63.3314 186.492 63.1557 186.08C62.98 185.664 62.8921 185.165 62.8921 184.582V184.568C62.8921 184.009 62.98 183.535 63.1557 183.146C63.3314 182.758 63.5858 182.462 63.9187 182.258C64.2563 182.05 64.6633 181.946 65.1396 181.946C65.6159 181.946 66.0205 182.05 66.3535 182.258C66.6911 182.462 66.9477 182.758 67.1235 183.146C67.2992 183.535 67.3871 184.009 67.3871 184.568V184.582C67.3871 185.165 67.2992 185.664 67.1235 186.08C66.9477 186.492 66.6911 186.809 66.3535 187.031C66.0205 187.248 65.6159 187.357 65.1396 187.357ZM73.6855 188.418C74.1249 188.418 74.5203 188.362 74.8717 188.251C75.2278 188.136 75.5353 187.983 75.7943 187.794C76.0533 187.599 76.2637 187.384 76.4255 187.149C76.592 186.908 76.7076 186.661 76.7724 186.406L76.7862 186.351H75.5793L75.5515 186.413C75.4868 186.561 75.3735 186.707 75.2116 186.85C75.0498 186.994 74.844 187.112 74.5943 187.204C74.3445 187.297 74.0509 187.343 73.7133 187.343C73.2601 187.343 72.867 187.243 72.5341 187.044C72.2011 186.841 71.9444 186.552 71.7641 186.177C71.5837 185.798 71.4936 185.343 71.4936 184.811V184.332C71.4936 183.773 71.5861 183.301 71.771 182.917C71.956 182.533 72.2057 182.244 72.5202 182.05C72.8393 181.851 73.2 181.752 73.6023 181.752C74.0046 181.752 74.3607 181.847 74.6706 182.036C74.9804 182.221 75.2232 182.503 75.3989 182.882C75.5746 183.262 75.6625 183.745 75.6625 184.332V184.811L76.259 183.93H70.8831V184.894H76.8764V184.422C76.8764 183.678 76.7446 183.026 76.481 182.466C76.2221 181.902 75.8475 181.463 75.3573 181.148C74.8717 180.834 74.289 180.677 73.6092 180.677C72.9341 180.677 72.3445 180.841 71.8404 181.169C71.3363 181.497 70.9456 181.953 70.6681 182.536C70.3953 183.118 70.2588 183.796 70.2588 184.568V184.575C70.2588 185.357 70.3953 186.036 70.6681 186.614C70.9456 187.188 71.3386 187.632 71.8473 187.946C72.3606 188.261 72.9734 188.418 73.6855 188.418ZM78.888 190.783H80.095V187.107H80.206C80.3447 187.375 80.5297 187.606 80.7609 187.801C80.9968 187.995 81.265 188.147 81.5656 188.258C81.8708 188.365 82.1945 188.418 82.5367 188.418C83.1703 188.418 83.7206 188.258 84.1877 187.939C84.6593 187.62 85.0247 187.172 85.2836 186.594C85.5426 186.016 85.6721 185.336 85.6721 184.554V184.54C85.6721 183.763 85.5426 183.086 85.2836 182.508C85.0247 181.93 84.6593 181.481 84.1877 181.162C83.7206 180.838 83.1703 180.677 82.5367 180.677C82.1899 180.677 81.8685 180.73 81.5725 180.836C81.2766 180.943 81.013 181.095 80.7818 181.294C80.5505 181.488 80.3586 181.724 80.206 182.002H80.095V180.808H78.888V190.783ZM82.2593 187.35C81.8061 187.35 81.4153 187.236 81.087 187.01C80.7586 186.783 80.5066 186.462 80.3309 186.046C80.1551 185.625 80.0673 185.128 80.0673 184.554V184.54C80.0673 183.962 80.1551 183.465 80.3309 183.049C80.5066 182.633 80.7586 182.311 81.087 182.085C81.4153 181.858 81.8061 181.745 82.2593 181.745C82.7171 181.745 83.1078 181.858 83.4316 182.085C83.7553 182.307 84.0027 182.626 84.1738 183.042C84.3495 183.458 84.4374 183.958 84.4374 184.54V184.554C84.4374 185.132 84.3495 185.632 84.1738 186.053C84.0027 186.469 83.7553 186.79 83.4316 187.017C83.1078 187.239 82.7171 187.35 82.2593 187.35ZM87.6907 188.286H88.8976L92.8862 182.265L92.0677 182.709H92.7059V188.286H93.9129V180.808H92.7059L88.7173 186.829L89.5358 186.385H88.8976V180.808H87.6907V188.286ZM101.71 180.808H95.6609V181.807H98.0818V188.286H99.2888V181.807H101.71V180.808ZM106.232 188.418C106.672 188.418 107.067 188.362 107.419 188.251C107.775 188.136 108.082 187.983 108.341 187.794C108.6 187.599 108.81 187.384 108.972 187.149C109.139 186.908 109.254 186.661 109.319 186.406L109.333 186.351H108.126L108.098 186.413C108.034 186.561 107.92 186.707 107.758 186.85C107.597 186.994 107.391 187.112 107.141 187.204C106.891 187.297 106.598 187.343 106.26 187.343C105.807 187.343 105.414 187.243 105.081 187.044C104.748 186.841 104.491 186.552 104.311 186.177C104.131 185.798 104.04 185.343 104.04 184.811V184.332C104.04 183.773 104.133 183.301 104.318 182.917C104.503 182.533 104.753 182.244 105.067 182.05C105.386 181.851 105.747 181.752 106.149 181.752C106.551 181.752 106.908 181.847 107.217 182.036C107.527 182.221 107.77 182.503 107.946 182.882C108.121 183.262 108.209 183.745 108.209 184.332V184.811L108.806 183.93H103.43V184.894H109.423V184.422C109.423 183.678 109.291 183.026 109.028 182.466C108.769 181.902 108.394 181.463 107.904 181.148C107.419 180.834 106.836 180.677 106.156 180.677C105.481 180.677 104.891 180.841 104.387 181.169C103.883 181.497 103.492 181.953 103.215 182.536C102.942 183.118 102.806 183.796 102.806 184.568V184.575C102.806 185.357 102.942 186.036 103.215 186.614C103.492 187.188 103.885 187.632 104.394 187.946C104.907 188.261 105.52 188.418 106.232 188.418ZM115.423 188.286H118.607C119.144 188.286 119.602 188.198 119.981 188.023C120.365 187.842 120.658 187.592 120.862 187.273C121.065 186.95 121.167 186.573 121.167 186.143V186.129C121.167 185.837 121.102 185.576 120.973 185.345C120.848 185.109 120.67 184.915 120.439 184.762C120.207 184.605 119.932 184.506 119.613 184.464V184.353C119.965 184.279 120.256 184.089 120.487 183.784C120.718 183.474 120.834 183.135 120.834 182.765V182.751C120.834 182.163 120.637 181.694 120.244 181.343C119.851 180.986 119.301 180.808 118.593 180.808H115.423V188.286ZM116.63 187.287V184.97H118.33C118.866 184.97 119.269 185.061 119.537 185.241C119.805 185.421 119.939 185.71 119.939 186.108V186.122C119.939 186.496 119.824 186.786 119.592 186.989C119.361 187.188 119.017 187.287 118.559 187.287H116.63ZM116.63 183.972V181.807H118.42C118.841 181.807 119.148 181.907 119.343 182.106C119.537 182.3 119.634 182.556 119.634 182.876V182.889C119.634 183.241 119.521 183.509 119.294 183.694C119.067 183.879 118.711 183.972 118.226 183.972H116.63ZM125.267 188.418C125.604 188.418 125.914 188.372 126.196 188.279C126.478 188.182 126.73 188.041 126.952 187.856C127.179 187.671 127.371 187.447 127.528 187.183H127.639V188.286H128.846V183.167C128.846 182.649 128.735 182.205 128.513 181.835C128.296 181.46 127.974 181.174 127.549 180.975C127.128 180.776 126.612 180.677 126.002 180.677C125.47 180.677 124.996 180.76 124.58 180.926C124.164 181.088 123.824 181.317 123.56 181.613C123.301 181.904 123.139 182.247 123.075 182.64L123.068 182.681H124.275L124.282 182.661C124.379 182.369 124.571 182.145 124.857 181.988C125.144 181.826 125.512 181.745 125.96 181.745C126.52 181.745 126.938 181.867 127.216 182.113C127.498 182.353 127.639 182.704 127.639 183.167V185.498C127.639 185.854 127.546 186.173 127.361 186.455C127.181 186.737 126.931 186.961 126.612 187.128C126.293 187.29 125.928 187.37 125.516 187.37C125.082 187.37 124.721 187.266 124.434 187.058C124.147 186.846 124.004 186.55 124.004 186.17V186.157C124.004 185.787 124.134 185.5 124.393 185.296C124.656 185.093 125.072 184.975 125.641 184.943L128.242 184.776V183.812L125.495 183.978C124.917 184.011 124.425 184.117 124.018 184.298C123.611 184.478 123.301 184.728 123.088 185.047C122.876 185.361 122.769 185.74 122.769 186.184V186.198C122.769 186.651 122.878 187.044 123.095 187.377C123.317 187.71 123.616 187.967 123.99 188.147C124.369 188.328 124.795 188.418 125.267 188.418ZM131.184 188.286H140.423V180.808H139.216V187.287H136.407V180.808H135.2V187.287H132.391V180.808H131.184V188.286ZM151.577 181.807V180.808H146.791V188.286H147.998V181.807H151.577ZM156.266 188.418C156.979 188.418 157.591 188.263 158.105 187.953C158.618 187.639 159.013 187.192 159.291 186.614C159.573 186.036 159.714 185.35 159.714 184.554V184.54C159.714 183.74 159.573 183.051 159.291 182.473C159.013 181.895 158.618 181.451 158.105 181.141C157.591 180.832 156.979 180.677 156.266 180.677C155.559 180.677 154.946 180.832 154.428 181.141C153.915 181.451 153.517 181.895 153.235 182.473C152.958 183.051 152.819 183.74 152.819 184.54V184.554C152.819 185.35 152.958 186.036 153.235 186.614C153.517 187.192 153.915 187.639 154.428 187.953C154.946 188.263 155.559 188.418 156.266 188.418ZM156.266 187.35C155.795 187.35 155.395 187.239 155.066 187.017C154.738 186.795 154.486 186.476 154.31 186.059C154.139 185.643 154.054 185.142 154.054 184.554V184.54C154.054 183.948 154.139 183.444 154.31 183.028C154.486 182.612 154.738 182.295 155.066 182.078C155.395 181.856 155.795 181.745 156.266 181.745C156.738 181.745 157.138 181.856 157.467 182.078C157.795 182.295 158.045 182.612 158.216 183.028C158.391 183.444 158.479 183.948 158.479 184.54V184.554C158.479 185.142 158.391 185.643 158.216 186.059C158.045 186.476 157.795 186.795 157.467 187.017C157.138 187.239 156.738 187.35 156.266 187.35ZM161.726 190.783H162.933V187.107H163.044C163.182 187.375 163.367 187.606 163.599 187.801C163.834 187.995 164.103 188.147 164.403 188.258C164.708 188.365 165.032 188.418 165.374 188.418C166.008 188.418 166.558 188.258 167.025 187.939C167.497 187.62 167.862 187.172 168.121 186.594C168.38 186.016 168.51 185.336 168.51 184.554V184.54C168.51 183.763 168.38 183.086 168.121 182.508C167.862 181.93 167.497 181.481 167.025 181.162C166.558 180.838 166.008 180.677 165.374 180.677C165.027 180.677 164.706 180.73 164.41 180.836C164.114 180.943 163.851 181.095 163.619 181.294C163.388 181.488 163.196 181.724 163.044 182.002H162.933V180.808H161.726V190.783ZM165.097 187.35C164.644 187.35 164.253 187.236 163.925 187.01C163.596 186.783 163.344 186.462 163.168 186.046C162.993 185.625 162.905 185.128 162.905 184.554V184.54C162.905 183.962 162.993 183.465 163.168 183.049C163.344 182.633 163.596 182.311 163.925 182.085C164.253 181.858 164.644 181.745 165.097 181.745C165.555 181.745 165.945 181.858 166.269 182.085C166.593 182.307 166.84 182.626 167.011 183.042C167.187 183.458 167.275 183.958 167.275 184.54V184.554C167.275 185.132 167.187 185.632 167.011 186.053C166.84 186.469 166.593 186.79 166.269 187.017C165.945 187.239 165.555 187.35 165.097 187.35ZM173.608 188.418C174.32 188.418 174.933 188.263 175.446 187.953C175.96 187.639 176.355 187.192 176.633 186.614C176.915 186.036 177.056 185.35 177.056 184.554V184.54C177.056 183.74 176.915 183.051 176.633 182.473C176.355 181.895 175.96 181.451 175.446 181.141C174.933 180.832 174.32 180.677 173.608 180.677C172.901 180.677 172.288 180.832 171.77 181.141C171.257 181.451 170.859 181.895 170.577 182.473C170.299 183.051 170.161 183.74 170.161 184.54V184.554C170.161 185.35 170.299 186.036 170.577 186.614C170.859 187.192 171.257 187.639 171.77 187.953C172.288 188.263 172.901 188.418 173.608 188.418ZM173.608 187.35C173.136 187.35 172.736 187.239 172.408 187.017C172.08 186.795 171.828 186.476 171.652 186.059C171.481 185.643 171.395 185.142 171.395 184.554V184.54C171.395 183.948 171.481 183.444 171.652 183.028C171.828 182.612 172.08 182.295 172.408 182.078C172.736 181.856 173.136 181.745 173.608 181.745C174.08 181.745 174.48 181.856 174.808 182.078C175.137 182.295 175.386 182.612 175.557 183.028C175.733 183.444 175.821 183.948 175.821 184.54V184.554C175.821 185.142 175.733 185.643 175.557 186.059C175.386 186.476 175.137 186.795 174.808 187.017C174.48 187.239 174.08 187.35 173.608 187.35ZM179.164 190.263V188.286H185.012V190.263H186.136V187.287H184.943V180.808H179.844L179.553 184.977C179.52 185.481 179.433 185.948 179.289 186.379C179.146 186.804 178.938 187.107 178.665 187.287H178.041V190.263H179.164ZM183.736 187.287H180.059V187.176C180.235 186.945 180.374 186.64 180.475 186.261C180.577 185.877 180.644 185.458 180.677 185.005L180.912 181.807H183.736V187.287Z" fill="black"/>
<g clip-path="url(#clip0_2905_3569)">
<path d="M119.093 2.11133H264.861V16.2713C264.861 25.1344 257.676 32.3193 248.813 32.3193H135.141C126.278 32.3193 119.093 25.1344 119.093 16.2713V2.11133Z" fill="black"/>
<path d="M119.312 2.11133H114.592C114.592 2.11133 114.592 2.11133 114.592 2.11133C117.094 2.11133 119.122 4.13975 119.122 6.64191C119.122 6.70536 119.121 6.76851 119.119 6.83133H119.312V2.11133Z" fill="black"/>
<path d="M264.688 2.11133H269.408C269.408 2.11133 269.408 2.11133 269.408 2.11133C266.906 2.11133 264.877 4.13975 264.877 6.64191C264.877 6.70536 264.878 6.76851 264.881 6.83133H264.688V2.11133Z" fill="black"/>
<path d="M45.9003 34.1602H47.922V22.8529H45.9081L42.954 24.9294V26.8336L45.7671 24.8432H45.9003V34.1602ZM55.8977 34.1602H57.8332V31.9896H59.3534V30.3205H57.8332V22.8529H54.9731C53.4373 25.188 51.8309 27.7895 50.3656 30.3362V31.9896H55.8977V34.1602ZM52.2462 30.3676V30.25C53.3432 28.3302 54.6518 26.238 55.8116 24.4671H55.9291V30.3676H52.2462ZM62.5336 26.8336C63.2545 26.8336 63.7795 26.285 63.7795 25.5955C63.7795 24.8981 63.2545 24.3574 62.5336 24.3574C61.8205 24.3574 61.2877 24.8981 61.2877 25.5955C61.2877 26.285 61.8205 26.8336 62.5336 26.8336ZM62.5336 32.6478C63.2545 32.6478 63.7795 32.1071 63.7795 31.4097C63.7795 30.7123 63.2545 30.1717 62.5336 30.1717C61.8205 30.1717 61.2877 30.7123 61.2877 31.4097C61.2877 32.1071 61.8205 32.6478 62.5336 32.6478ZM71.1911 34.1602H73.1266V31.9896H74.6468V30.3205H73.1266V22.8529H70.2665C68.7306 25.188 67.1243 27.7895 65.6589 30.3362V31.9896H71.1911V34.1602ZM67.5396 30.3676V30.25C68.6366 28.3302 69.9452 26.238 71.1049 24.4671H71.2225V30.3676H67.5396ZM76.3695 34.1602H84.2211V32.4833H79.1042V32.3187L81.3688 30.1246C83.4297 28.1422 84.0487 27.1235 84.0487 25.8384V25.8149C84.0487 23.9107 82.4658 22.5708 80.2639 22.5708C77.9053 22.5708 76.2598 24.044 76.2598 26.1518L76.2676 26.1753L78.1482 26.1832L78.1561 26.1518C78.1561 24.9843 78.9632 24.1928 80.1621 24.1928C81.3375 24.1928 82.0505 24.9451 82.0505 25.9873V26.0108C82.0505 26.8806 81.6196 27.4526 80.0837 29.0041L76.3695 32.7967V34.1602Z" fill="#010101"/>
<path opacity="0.35" d="M320.881 25.7125C320.881 23.9021 322.348 22.4345 324.159 22.4345H340.207C342.017 22.4345 343.485 23.9021 343.485 25.7125V30.4325C343.485 32.2429 342.017 33.7105 340.207 33.7105H324.159C322.348 33.7105 320.881 32.2429 320.881 30.4325V25.7125Z" stroke="black" stroke-width="0.996001"/>
<path opacity="0.4" d="M344.928 26.6562V30.6403C345.729 30.3028 346.25 29.5179 346.25 28.6483C346.25 27.7786 345.729 26.9937 344.928 26.6562Z" fill="black"/>
<path d="M322.271 25.7122C322.271 24.6695 323.117 23.8242 324.159 23.8242H340.207C341.25 23.8242 342.095 24.6695 342.095 25.7122V30.4322C342.095 31.4749 341.25 32.3202 340.207 32.3202H324.159C323.117 32.3202 322.271 31.4749 322.271 30.4322V25.7122Z" fill="black"/>
<path fill-rule="evenodd" clip-rule="evenodd" d="M305.753 25.3225C308.081 25.3226 310.321 26.2359 312.008 27.8735C312.135 27.9999 312.338 27.9983 312.464 27.8699L313.678 26.6185C313.742 26.5534 313.777 26.4652 313.777 26.3734C313.776 26.2816 313.74 26.1938 313.676 26.1294C309.246 21.7967 302.259 21.7967 297.83 26.1294C297.766 26.1938 297.729 26.2815 297.729 26.3733C297.728 26.4651 297.763 26.5534 297.827 26.6185L299.042 27.8699C299.167 27.9985 299.37 28.0001 299.497 27.8735C301.185 26.2357 303.424 25.3225 305.753 25.3225ZM305.786 29.1786C307.066 29.1785 308.299 29.6639 309.248 30.5404C309.376 30.6648 309.578 30.6621 309.703 30.5344L310.916 29.283C310.98 29.2174 311.016 29.1283 311.015 29.0358C311.014 28.9433 310.977 28.855 310.911 28.7907C308.024 26.0488 303.552 26.0488 300.664 28.7907C300.599 28.855 300.561 28.9433 300.561 29.0359C300.56 29.1284 300.595 29.2175 300.659 29.283L301.872 30.5344C301.997 30.6621 302.199 30.6648 302.328 30.5404C303.275 29.6645 304.508 29.1792 305.786 29.1786ZM308.254 31.6994C308.256 31.7922 308.22 31.8817 308.155 31.9467L306.056 34.1086C305.995 34.1722 305.911 34.2079 305.823 34.2079C305.736 34.2079 305.652 34.1722 305.59 34.1086L303.491 31.9467C303.426 31.8816 303.391 31.7921 303.393 31.6993C303.395 31.6066 303.434 31.5187 303.501 31.4565C304.842 30.2993 306.805 30.2993 308.145 31.4565C308.213 31.5187 308.252 31.6066 308.254 31.6994Z" fill="black"/>
<path d="M282.624 25.7119C282.624 25.1905 283.046 24.7679 283.568 24.7679H284.512C285.033 24.7679 285.456 25.1905 285.456 25.7119V33.2639C285.456 33.7852 285.033 34.2079 284.512 34.2079H283.568C283.046 34.2079 282.624 33.7852 282.624 33.2639V25.7119Z" fill="black"/>
<path d="M287.344 23.8239C287.344 23.3025 287.766 22.8799 288.288 22.8799H289.232C289.753 22.8799 290.176 23.3025 290.176 23.8239V33.2639C290.176 33.7852 289.753 34.2079 289.232 34.2079H288.288C287.766 34.2079 287.344 33.7852 287.344 33.2639V23.8239Z" fill="black"/>
<path d="M277.904 29.0159C277.904 28.4945 278.326 28.0719 278.848 28.0719H279.792C280.313 28.0719 280.736 28.4945 280.736 29.0159V33.2639C280.736 33.7852 280.313 34.2079 279.792 34.2079H278.848C278.326 34.2079 277.904 33.7852 277.904 33.2639V29.0159Z" fill="black"/>
<path d="M273.184 31.3759C273.184 30.8545 273.606 30.4319 274.128 30.4319H275.072C275.593 30.4319 276.016 30.8545 276.016 31.3759V33.2639C276.016 33.7852 275.593 34.2079 275.072 34.2079H274.128C273.606 34.2079 273.184 33.7852 273.184 33.2639V31.3759Z" fill="black"/>
</g>
<path d="M62.7265 313.117C63.6807 313.117 64.5006 312.902 65.1861 312.471C65.8763 312.04 66.4044 311.433 66.7703 310.651C67.1409 309.863 67.3262 308.937 67.3262 307.871V307.857C67.3262 306.787 67.1409 305.861 66.7703 305.078C66.3997 304.291 65.8694 303.684 65.1792 303.258C64.4936 302.832 63.6761 302.618 62.7265 302.618C61.7815 302.618 60.964 302.832 60.2738 303.258C59.5882 303.684 59.0579 304.288 58.6827 305.071C58.3121 305.854 58.1268 306.783 58.1268 307.857V307.871C58.1268 308.937 58.3098 309.863 58.6757 310.651C59.0463 311.438 59.5743 312.047 60.2599 312.478C60.9454 312.904 61.7676 313.117 62.7265 313.117ZM62.7265 311.964C62.0317 311.964 61.4364 311.795 60.9408 311.456C60.4452 311.118 60.0653 310.644 59.8013 310.032C59.5373 309.416 59.4053 308.696 59.4053 307.871V307.857C59.4053 307.024 59.5396 306.301 59.8083 305.69C60.0816 305.078 60.466 304.606 60.9617 304.272C61.4573 303.939 62.0456 303.772 62.7265 303.772C63.412 303.772 64.0026 303.939 64.4983 304.272C64.9939 304.606 65.376 305.078 65.6447 305.69C65.9134 306.301 66.0477 307.024 66.0477 307.857V307.871C66.0477 308.696 65.9134 309.416 65.6447 310.032C65.376 310.644 64.9939 311.118 64.4983 311.456C64.0026 311.795 63.412 311.964 62.7265 311.964ZM73.8435 313.117C74.7977 313.117 75.6176 312.902 76.3032 312.471C76.9933 312.04 77.5214 311.433 77.8873 310.651C78.2579 309.863 78.4432 308.937 78.4432 307.871V307.857C78.4432 306.787 78.2579 305.861 77.8873 305.078C77.5168 304.291 76.9864 303.684 76.2962 303.258C75.6107 302.832 74.7931 302.618 73.8435 302.618C72.8986 302.618 72.081 302.832 71.3908 303.258C70.7053 303.684 70.1749 304.288 69.7997 305.071C69.4291 305.854 69.2438 306.783 69.2438 307.857V307.871C69.2438 308.937 69.4268 309.863 69.7928 310.651C70.1633 311.438 70.6914 312.047 71.3769 312.478C72.0625 312.904 72.8847 313.117 73.8435 313.117ZM73.8435 311.964C73.1487 311.964 72.5535 311.795 72.0578 311.456C71.5622 311.118 71.1824 310.644 70.9184 310.032C70.6543 309.416 70.5223 308.696 70.5223 307.871V307.857C70.5223 307.024 70.6566 306.301 70.9253 305.69C71.1986 305.078 71.5831 304.606 72.0787 304.272C72.5743 303.939 73.1626 303.772 73.8435 303.772C74.5291 303.772 75.1197 303.939 75.6153 304.272C76.1109 304.606 76.4931 305.078 76.7617 305.69C77.0304 306.301 77.1647 307.024 77.1647 307.857V307.871C77.1647 308.696 77.0304 309.416 76.7617 310.032C76.4931 310.644 76.1109 311.118 75.6153 311.456C75.1197 311.795 74.5291 311.964 73.8435 311.964ZM84.9606 313.117C85.9148 313.117 86.7346 312.902 87.4202 312.471C88.1104 312.04 88.6384 311.433 89.0044 310.651C89.3749 309.863 89.5602 308.937 89.5602 307.871V307.857C89.5602 306.787 89.3749 305.861 89.0044 305.078C88.6338 304.291 88.1034 303.684 87.4132 303.258C86.7277 302.832 85.9101 302.618 84.9606 302.618C84.0156 302.618 83.198 302.832 82.5079 303.258C81.8223 303.684 81.2919 304.288 80.9167 305.071C80.5462 305.854 80.3609 306.783 80.3609 307.857V307.871C80.3609 308.937 80.5438 309.863 80.9098 310.651C81.2804 311.438 81.8084 312.047 82.494 312.478C83.1795 312.904 84.0017 313.117 84.9606 313.117ZM84.9606 311.964C84.2657 311.964 83.6705 311.795 83.1749 311.456C82.6792 311.118 82.2994 310.644 82.0354 310.032C81.7714 309.416 81.6393 308.696 81.6393 307.871V307.857C81.6393 307.024 81.7737 306.301 82.0423 305.69C82.3156 305.078 82.7001 304.606 83.1957 304.272C83.6914 303.939 84.2796 303.772 84.9606 303.772C85.6461 303.772 86.2367 303.939 86.7323 304.272C87.228 304.606 87.6101 305.078 87.8788 305.69C88.1474 306.301 88.2818 307.024 88.2818 307.857V307.871C88.2818 308.696 88.1474 309.416 87.8788 310.032C87.6101 310.644 87.228 311.118 86.7323 311.456C86.2367 311.795 85.6461 311.964 84.9606 311.964ZM97.627 302.855H96.7307L95.6399 306.808H97.0225L97.627 302.855ZM99.9338 302.855H99.0375L97.9466 306.808H99.3293L99.9338 302.855ZM103.026 309.303H106.18C106.81 309.303 107.366 309.166 107.848 308.893C108.329 308.619 108.707 308.239 108.98 307.753C109.258 307.267 109.397 306.706 109.397 306.072V306.058C109.397 305.423 109.258 304.865 108.98 304.383C108.707 303.902 108.329 303.526 107.848 303.258C107.366 302.989 106.81 302.855 106.18 302.855H103.026V303.966H105.861C106.579 303.966 107.134 304.152 107.528 304.522C107.922 304.893 108.119 305.409 108.119 306.072V306.086C108.119 306.743 107.922 307.26 107.528 307.635C107.134 308.006 106.579 308.191 105.861 308.191H103.026V309.303ZM102.4 312.881H103.651V302.855H102.4V312.881ZM114.372 313.013C115.085 313.013 115.699 312.858 116.213 312.547C116.727 312.232 117.124 311.785 117.401 311.206C117.684 310.627 117.825 309.939 117.825 309.143V309.129C117.825 308.328 117.684 307.637 117.401 307.058C117.124 306.479 116.727 306.035 116.213 305.724C115.699 305.414 115.085 305.259 114.372 305.259C113.663 305.259 113.05 305.414 112.531 305.724C112.017 306.035 111.618 306.479 111.336 307.058C111.058 307.637 110.919 308.328 110.919 309.129V309.143C110.919 309.939 111.058 310.627 111.336 311.206C111.618 311.785 112.017 312.232 112.531 312.547C113.05 312.858 113.663 313.013 114.372 313.013ZM114.372 311.943C113.9 311.943 113.499 311.832 113.17 311.609C112.841 311.387 112.589 311.067 112.413 310.651C112.241 310.234 112.156 309.731 112.156 309.143V309.129C112.156 308.536 112.241 308.031 112.413 307.614C112.589 307.197 112.841 306.88 113.17 306.662C113.499 306.44 113.9 306.329 114.372 306.329C114.845 306.329 115.245 306.44 115.574 306.662C115.903 306.88 116.153 307.197 116.324 307.614C116.501 308.031 116.589 308.536 116.589 309.129V309.143C116.589 309.731 116.501 310.234 116.324 310.651C116.153 311.067 115.903 311.387 115.574 311.609C115.245 311.832 114.845 311.943 114.372 311.943ZM121.042 312.881V307.552H121.174L123.53 312.672H124.461L126.823 307.552H126.955V312.881H128.164V305.391H126.761L124.079 311.199H123.967L121.299 305.391H119.833V312.881H121.042ZM132.611 313.013C132.949 313.013 133.259 312.967 133.542 312.874C133.825 312.777 134.077 312.635 134.299 312.45C134.526 312.265 134.719 312.04 134.876 311.776H134.987V312.881H136.196V307.753C136.196 307.234 136.085 306.79 135.863 306.419C135.645 306.044 135.323 305.757 134.897 305.558C134.475 305.358 133.959 305.259 133.347 305.259C132.815 305.259 132.34 305.342 131.923 305.509C131.506 305.671 131.166 305.9 130.902 306.197C130.642 306.489 130.48 306.831 130.415 307.225L130.408 307.267H131.617L131.624 307.246C131.722 306.954 131.914 306.729 132.201 306.572C132.488 306.41 132.856 306.329 133.306 306.329C133.866 306.329 134.285 306.452 134.563 306.697C134.846 306.938 134.987 307.29 134.987 307.753V310.088C134.987 310.444 134.895 310.764 134.709 311.047C134.529 311.329 134.278 311.554 133.959 311.721C133.639 311.883 133.273 311.964 132.861 311.964C132.426 311.964 132.064 311.859 131.777 311.651C131.49 311.438 131.346 311.142 131.346 310.762V310.748C131.346 310.377 131.476 310.09 131.735 309.886C132 309.682 132.416 309.564 132.986 309.532L135.592 309.365V308.399L132.84 308.566C132.261 308.598 131.768 308.705 131.36 308.886C130.953 309.066 130.642 309.316 130.429 309.636C130.216 309.951 130.11 310.331 130.11 310.776V310.789C130.11 311.243 130.218 311.637 130.436 311.971C130.659 312.304 130.957 312.561 131.332 312.742C131.712 312.923 132.138 313.013 132.611 313.013ZM138.538 312.881H147.793V305.391H146.584V311.88H143.77V305.391H142.561V311.88H139.747V305.391H138.538V312.881ZM151.76 309.469L154.692 312.881H156.242L152.642 308.809V309.025L156.11 305.391H154.657L151.76 308.524H151.378V305.391H150.169V312.881H151.378V309.469H151.76ZM159.764 313.013C160.102 313.013 160.413 312.967 160.695 312.874C160.978 312.777 161.23 312.635 161.453 312.45C161.68 312.265 161.872 312.04 162.029 311.776H162.141V312.881H163.35V307.753C163.35 307.234 163.238 306.79 163.016 306.419C162.798 306.044 162.476 305.757 162.05 305.558C161.629 305.358 161.112 305.259 160.501 305.259C159.968 305.259 159.493 305.342 159.076 305.509C158.66 305.671 158.319 305.9 158.055 306.197C157.796 306.489 157.634 306.831 157.569 307.225L157.562 307.267H158.771L158.778 307.246C158.875 306.954 159.067 306.729 159.354 306.572C159.642 306.41 160.01 306.329 160.459 306.329C161.02 306.329 161.439 306.452 161.717 306.697C161.999 306.938 162.141 307.29 162.141 307.753V310.088C162.141 310.444 162.048 310.764 161.863 311.047C161.682 311.329 161.432 311.554 161.112 311.721C160.793 311.883 160.427 311.964 160.014 311.964C159.579 311.964 159.218 311.859 158.931 311.651C158.643 311.438 158.5 311.142 158.5 310.762V310.748C158.5 310.377 158.629 310.09 158.889 309.886C159.153 309.682 159.57 309.564 160.139 309.532L162.745 309.365V308.399L159.994 308.566C159.415 308.598 158.921 308.705 158.514 308.886C158.106 309.066 157.796 309.316 157.583 309.636C157.369 309.951 157.263 310.331 157.263 310.776V310.789C157.263 311.243 157.372 311.637 157.59 311.971C157.812 312.304 158.111 312.561 158.486 312.742C158.866 312.923 159.292 313.013 159.764 313.013ZM165.622 306.808H166.518L167.609 302.855H166.226L165.622 306.808ZM167.928 306.808H168.825L169.916 302.855H168.533L167.928 306.808Z" fill="black" fill-opacity="0.4"/>
<rect x="41.3234" y="290.145" width="303.354" height="38.1617" rx="10.0255" stroke="black" stroke-opacity="0.2" stroke-width="0.646809"/>
<path d="M42.9733 275.365H46.2597C46.9731 275.365 47.5822 275.254 48.0871 275.032C48.592 274.805 48.9788 274.483 49.2474 274.066C49.5207 273.644 49.6574 273.142 49.6574 272.558V272.544C49.6574 272.104 49.5647 271.713 49.3795 271.37C49.1988 271.023 48.9417 270.74 48.6082 270.522C48.2747 270.305 47.8787 270.168 47.4201 270.112V270.001C47.7443 269.941 48.0362 269.807 48.2956 269.598C48.555 269.39 48.7611 269.133 48.9139 268.827C49.0714 268.521 49.1502 268.195 49.1502 267.847V267.833C49.1502 267.324 49.0297 266.884 48.7889 266.513C48.5526 266.138 48.2122 265.849 47.7675 265.645C47.3274 265.441 46.7994 265.339 46.1833 265.339H42.9733V266.444H45.9193C46.54 266.444 47.0217 266.585 47.3645 266.868C47.7119 267.146 47.8856 267.539 47.8856 268.049V268.063C47.8856 268.591 47.6934 268.989 47.3089 269.258C46.9291 269.526 46.3593 269.661 45.5997 269.661H42.9733V270.738H45.954C46.4867 270.738 46.9314 270.803 47.2881 270.932C47.6494 271.062 47.9204 271.257 48.101 271.516C48.2817 271.775 48.372 272.097 48.372 272.482V272.496C48.372 273.07 48.1774 273.508 47.7883 273.809C47.3992 274.11 46.8272 274.26 46.0721 274.26H42.9733V275.365ZM42.3479 275.365H43.5986V265.339H42.3479V275.365ZM53.7429 275.497C54.081 275.497 54.3914 275.451 54.674 275.358C54.9565 275.261 55.209 275.12 55.4313 274.934C55.6583 274.749 55.8505 274.525 56.008 274.26H56.1192V275.365H57.3281V270.238C57.3281 269.719 57.217 269.274 56.9946 268.903C56.7769 268.528 56.455 268.241 56.0288 268.042C55.6073 267.843 55.0908 267.743 54.4794 267.743C53.9467 267.743 53.4719 267.826 53.055 267.993C52.6381 268.155 52.2977 268.385 52.0337 268.681C51.7743 268.973 51.6121 269.316 51.5473 269.709L51.5403 269.751H52.7493L52.7563 269.73C52.8535 269.438 53.0458 269.214 53.333 269.056C53.6201 268.894 53.9884 268.813 54.4377 268.813C54.9982 268.813 55.4174 268.936 55.6953 269.181C55.9779 269.422 56.1192 269.774 56.1192 270.238V272.572C56.1192 272.929 56.0265 273.248 55.8412 273.531C55.6606 273.813 55.4105 274.038 55.0908 274.205C54.7712 274.367 54.4053 274.448 53.993 274.448C53.5576 274.448 53.1963 274.344 52.9091 274.135C52.6219 273.922 52.4783 273.626 52.4783 273.246V273.232C52.4783 272.862 52.608 272.574 52.8674 272.371C53.1315 272.167 53.5484 272.049 54.1181 272.016L56.7237 271.849V270.884L53.9722 271.05C53.3932 271.083 52.8999 271.189 52.4922 271.37C52.0846 271.551 51.7743 271.801 51.5612 272.12C51.3481 272.435 51.2416 272.815 51.2416 273.26V273.274C51.2416 273.728 51.3504 274.122 51.5681 274.455C51.7905 274.789 52.0892 275.046 52.4644 275.226C52.8443 275.407 53.2704 275.497 53.7429 275.497ZM59.6697 275.365H68.9246V267.875H67.7156V274.365H64.9016V267.875H63.6926V274.365H60.8786V267.875H59.6697V275.365ZM74.365 275.497C74.805 275.497 75.2011 275.442 75.5531 275.33C75.9098 275.215 76.2178 275.062 76.4772 274.872C76.7366 274.677 76.9474 274.462 77.1095 274.226C77.2763 273.985 77.3921 273.737 77.4569 273.482L77.4708 273.427H76.2618L76.234 273.489C76.1692 273.637 76.0557 273.783 75.8936 273.927C75.7315 274.071 75.5253 274.189 75.2752 274.281C75.0251 274.374 74.7309 274.42 74.3928 274.42C73.9388 274.42 73.5451 274.321 73.2116 274.122C72.8781 273.918 72.621 273.628 72.4404 273.253C72.2597 272.873 72.1694 272.417 72.1694 271.884V271.405C72.1694 270.844 72.262 270.372 72.4473 269.987C72.6326 269.603 72.8827 269.313 73.1977 269.119C73.5173 268.92 73.8786 268.82 74.2816 268.82C74.6846 268.82 75.0413 268.915 75.3516 269.105C75.662 269.29 75.9052 269.573 76.0812 269.953C76.2572 270.332 76.3452 270.817 76.3452 271.405V271.884L76.9428 271.002H71.5579V271.968H77.5611V271.495C77.5611 270.749 77.4291 270.096 77.1651 269.536C76.9057 268.971 76.5305 268.531 76.0395 268.216C75.5531 267.901 74.9695 267.743 74.2886 267.743C73.6123 267.743 73.0217 267.908 72.5168 268.236C72.0119 268.565 71.6205 269.022 71.3426 269.605C71.0693 270.189 70.9326 270.867 70.9326 271.641V271.648C70.9326 272.431 71.0693 273.112 71.3426 273.691C71.6205 274.265 72.0142 274.71 72.5237 275.025C73.0379 275.34 73.6517 275.497 74.365 275.497ZM88.9978 267.875H82.939V268.876H85.3639V275.365H86.5729V268.876H88.9978V267.875ZM93.528 275.497C93.968 275.497 94.3641 275.442 94.7161 275.33C95.0728 275.215 95.3808 275.062 95.6402 274.872C95.8996 274.677 96.1104 274.462 96.2725 274.226C96.4393 273.985 96.5551 273.737 96.6199 273.482L96.6338 273.427H95.4248L95.397 273.489C95.3322 273.637 95.2187 273.783 95.0566 273.927C94.8945 274.071 94.6883 274.189 94.4382 274.281C94.1881 274.374 93.8939 274.42 93.5558 274.42C93.1018 274.42 92.7081 274.321 92.3746 274.122C92.0411 273.918 91.784 273.628 91.6033 273.253C91.4227 272.873 91.3324 272.417 91.3324 271.884V271.405C91.3324 270.844 91.425 270.372 91.6103 269.987C91.7956 269.603 92.0457 269.313 92.3607 269.119C92.6803 268.92 93.0416 268.82 93.4446 268.82C93.8476 268.82 94.2043 268.915 94.5146 269.105C94.825 269.29 95.0682 269.573 95.2442 269.953C95.4202 270.332 95.5082 270.817 95.5082 271.405V271.884L96.1057 271.002H90.7209V271.968H96.7241V271.495C96.7241 270.749 96.5921 270.096 96.3281 269.536C96.0687 268.971 95.6935 268.531 95.2025 268.216C94.7161 267.901 94.1325 267.743 93.4516 267.743C92.7753 267.743 92.1847 267.908 91.6798 268.236C91.1749 268.565 90.7835 269.022 90.5055 269.605C90.2322 270.189 90.0956 270.867 90.0956 271.641V271.648C90.0956 272.431 90.2322 273.112 90.5055 273.691C90.7835 274.265 91.1772 274.71 91.6867 275.025C92.2009 275.34 92.8146 275.497 93.528 275.497ZM100.323 271.954L103.255 275.365H104.805L101.206 271.294V271.509L104.673 267.875H103.221L100.323 271.009H99.9411V267.875H98.7321V275.365H99.9411V271.954H100.323ZM106.841 277.992C107.285 277.992 107.658 277.927 107.959 277.797C108.265 277.672 108.529 277.452 108.751 277.137C108.978 276.822 109.196 276.384 109.404 275.824L112.33 267.875H111.058L108.758 274.795L109.238 274.038H108.668L109.147 274.795L106.841 267.875H105.548L108.321 275.372L108.182 275.817C108.047 276.248 107.869 276.551 107.647 276.727C107.429 276.903 107.149 276.991 106.806 276.991C106.723 276.991 106.637 276.989 106.549 276.984C106.461 276.98 106.38 276.97 106.306 276.956V277.95C106.389 277.964 106.479 277.973 106.577 277.978C106.674 277.987 106.762 277.992 106.841 277.992ZM114.06 275.365H123.315V267.875H122.106V274.365H119.292V267.875H118.083V274.365H115.269V267.875H114.06V275.365ZM123.37 277.345H124.524V274.365H122.133V275.365H123.37V277.345ZM129.158 275.497C129.598 275.497 129.994 275.442 130.346 275.33C130.703 275.215 131.011 275.062 131.27 274.872C131.53 274.677 131.74 274.462 131.903 274.226C132.069 273.985 132.185 273.737 132.25 273.482L132.264 273.427H131.055L131.027 273.489C130.962 273.637 130.849 273.783 130.687 273.927C130.525 274.071 130.318 274.189 130.068 274.281C129.818 274.374 129.524 274.42 129.186 274.42C128.732 274.42 128.338 274.321 128.005 274.122C127.671 273.918 127.414 273.628 127.233 273.253C127.053 272.873 126.962 272.417 126.962 271.884V271.405C126.962 270.844 127.055 270.372 127.24 269.987C127.426 269.603 127.676 269.313 127.991 269.119C128.31 268.92 128.672 268.82 129.075 268.82C129.478 268.82 129.834 268.915 130.145 269.105C130.455 269.29 130.698 269.573 130.874 269.953C131.05 270.332 131.138 270.817 131.138 271.405V271.884L131.736 271.002H126.351V271.968H132.354V271.495C132.354 270.749 132.222 270.096 131.958 269.536C131.699 268.971 131.324 268.531 130.833 268.216C130.346 267.901 129.763 267.743 129.082 267.743C128.405 267.743 127.815 267.908 127.31 268.236C126.805 268.565 126.414 269.022 126.136 269.605C125.862 270.189 125.726 270.867 125.726 271.641V271.648C125.726 272.431 125.862 273.112 126.136 273.691C126.414 274.265 126.807 274.71 127.317 275.025C127.831 275.34 128.445 275.497 129.158 275.497ZM137.426 275.497C137.866 275.497 138.262 275.442 138.615 275.33C138.971 275.215 139.279 275.062 139.539 274.872C139.798 274.677 140.009 274.462 140.171 274.226C140.338 273.985 140.453 273.737 140.518 273.482L140.532 273.427H139.323L139.295 273.489C139.231 273.637 139.117 273.783 138.955 273.927C138.793 274.071 138.587 274.189 138.337 274.281C138.086 274.374 137.792 274.42 137.454 274.42C137 274.42 136.606 274.321 136.273 274.122C135.939 273.918 135.682 273.628 135.502 273.253C135.321 272.873 135.231 272.417 135.231 271.884V271.405C135.231 270.844 135.323 270.372 135.509 269.987C135.694 269.603 135.944 269.313 136.259 269.119C136.579 268.92 136.94 268.82 137.343 268.82C137.746 268.82 138.103 268.915 138.413 269.105C138.723 269.29 138.967 269.573 139.143 269.953C139.319 270.332 139.407 270.817 139.407 271.405V271.884L140.004 271.002H134.619V271.968H140.623V271.495C140.623 270.749 140.491 270.096 140.226 269.536C139.967 268.971 139.592 268.531 139.101 268.216C138.615 267.901 138.031 267.743 137.35 267.743C136.674 267.743 136.083 267.908 135.578 268.236C135.073 268.565 134.682 269.022 134.404 269.605C134.131 270.189 133.994 270.867 133.994 271.641V271.648C133.994 272.431 134.131 273.112 134.404 273.691C134.682 274.265 135.076 274.71 135.585 275.025C136.099 275.34 136.713 275.497 137.426 275.497ZM147.842 275.365V270.036H147.974L150.329 275.157H151.26L153.622 270.036H153.755V275.365H154.963V267.875H153.56L150.878 273.684H150.767L148.099 267.875H146.633V275.365H147.842ZM160.411 275.497C160.851 275.497 161.247 275.442 161.599 275.33C161.956 275.215 162.264 275.062 162.523 274.872C162.782 274.677 162.993 274.462 163.155 274.226C163.322 273.985 163.438 273.737 163.503 273.482L163.517 273.427H162.308L162.28 273.489C162.215 273.637 162.102 273.783 161.939 273.927C161.777 274.071 161.571 274.189 161.321 274.281C161.071 274.374 160.777 274.42 160.439 274.42C159.985 274.42 159.591 274.321 159.257 274.122C158.924 273.918 158.667 273.628 158.486 273.253C158.306 272.873 158.215 272.417 158.215 271.884V271.405C158.215 270.844 158.308 270.372 158.493 269.987C158.678 269.603 158.929 269.313 159.244 269.119C159.563 268.92 159.924 268.82 160.327 268.82C160.73 268.82 161.087 268.915 161.397 269.105C161.708 269.29 161.951 269.573 162.127 269.953C162.303 270.332 162.391 270.817 162.391 271.405V271.884L162.989 271.002H157.604V271.968H163.607V271.495C163.607 270.749 163.475 270.096 163.211 269.536C162.952 268.971 162.576 268.531 162.085 268.216C161.599 267.901 161.015 267.743 160.334 267.743C159.658 267.743 159.068 267.908 158.563 268.236C158.058 268.565 157.666 269.022 157.388 269.605C157.115 270.189 156.978 270.867 156.978 271.641V271.648C156.978 272.431 157.115 273.112 157.388 273.691C157.666 274.265 158.06 274.71 158.57 275.025C159.084 275.34 159.697 275.497 160.411 275.497ZM168.686 275.497C169.288 275.497 169.802 275.398 170.229 275.198C170.655 274.999 170.997 274.726 171.257 274.379C171.516 274.027 171.697 273.626 171.799 273.177L171.813 273.1L170.618 273.107L170.604 273.149C170.465 273.566 170.236 273.883 169.916 274.101C169.596 274.318 169.184 274.427 168.679 274.427C168.234 274.427 167.848 274.311 167.519 274.08C167.19 273.848 166.935 273.522 166.754 273.1C166.574 272.674 166.484 272.174 166.484 271.599V271.585C166.484 271.02 166.572 270.532 166.748 270.119C166.928 269.702 167.183 269.381 167.512 269.154C167.841 268.927 168.23 268.813 168.679 268.813C169.216 268.813 169.65 268.943 169.978 269.202C170.307 269.462 170.518 269.777 170.611 270.147L170.618 270.168H171.82L171.813 270.126C171.739 269.682 171.57 269.281 171.306 268.924C171.041 268.563 170.689 268.276 170.249 268.063C169.809 267.85 169.286 267.743 168.679 267.743C167.98 267.743 167.373 267.903 166.859 268.223C166.345 268.538 165.946 268.982 165.664 269.557C165.386 270.131 165.247 270.807 165.247 271.585V271.599C165.247 272.391 165.388 273.079 165.671 273.663C165.953 274.247 166.352 274.698 166.866 275.018C167.38 275.337 167.987 275.497 168.686 275.497ZM178.796 267.875H172.737V268.876H175.162V275.365H176.371V268.876H178.796V267.875ZM183.347 275.497C184.06 275.497 184.674 275.342 185.188 275.032C185.702 274.717 186.098 274.27 186.376 273.691C186.659 273.112 186.8 272.424 186.8 271.627V271.613C186.8 270.812 186.659 270.122 186.376 269.543C186.098 268.964 185.702 268.519 185.188 268.209C184.674 267.898 184.06 267.743 183.347 267.743C182.638 267.743 182.024 267.898 181.505 268.209C180.991 268.519 180.593 268.964 180.31 269.543C180.032 270.122 179.893 270.812 179.893 271.613V271.627C179.893 272.424 180.032 273.112 180.31 273.691C180.593 274.27 180.991 274.717 181.505 275.032C182.024 275.342 182.638 275.497 183.347 275.497ZM183.347 274.427C182.874 274.427 182.474 274.316 182.145 274.094C181.816 273.871 181.563 273.552 181.387 273.135C181.216 272.718 181.13 272.215 181.13 271.627V271.613C181.13 271.02 181.216 270.515 181.387 270.099C181.563 269.682 181.816 269.364 182.145 269.147C182.474 268.924 182.874 268.813 183.347 268.813C183.819 268.813 184.22 268.924 184.549 269.147C184.878 269.364 185.128 269.682 185.299 270.099C185.475 270.515 185.563 271.02 185.563 271.613V271.627C185.563 272.215 185.475 272.718 185.299 273.135C185.128 273.552 184.878 273.871 184.549 274.094C184.22 274.316 183.819 274.427 183.347 274.427ZM192.817 277.867H194.026V274.184H194.137C194.276 274.453 194.461 274.684 194.693 274.879C194.929 275.073 195.198 275.226 195.499 275.337C195.805 275.444 196.129 275.497 196.472 275.497C197.106 275.497 197.658 275.337 198.125 275.018C198.598 274.698 198.964 274.249 199.223 273.67C199.483 273.091 199.612 272.41 199.612 271.627V271.613C199.612 270.835 199.483 270.156 199.223 269.577C198.964 268.998 198.598 268.549 198.125 268.229C197.658 267.905 197.106 267.743 196.472 267.743C196.124 267.743 195.802 267.796 195.506 267.903C195.209 268.009 194.945 268.162 194.714 268.362C194.482 268.556 194.29 268.792 194.137 269.07H194.026V267.875H192.817V277.867ZM196.194 274.427C195.74 274.427 195.348 274.314 195.02 274.087C194.691 273.86 194.438 273.538 194.262 273.121C194.086 272.699 193.998 272.202 193.998 271.627V271.613C193.998 271.034 194.086 270.536 194.262 270.119C194.438 269.702 194.691 269.381 195.02 269.154C195.348 268.927 195.74 268.813 196.194 268.813C196.652 268.813 197.044 268.927 197.368 269.154C197.692 269.376 197.94 269.696 198.111 270.112C198.287 270.529 198.376 271.03 198.376 271.613V271.627C198.376 272.206 198.287 272.706 198.111 273.128C197.94 273.545 197.692 273.867 197.368 274.094C197.044 274.316 196.652 274.427 196.194 274.427ZM203.698 275.497C204.036 275.497 204.346 275.451 204.629 275.358C204.911 275.261 205.164 275.12 205.386 274.934C205.613 274.749 205.805 274.525 205.963 274.26H206.074V275.365H207.283V270.238C207.283 269.719 207.172 269.274 206.95 268.903C206.732 268.528 206.41 268.241 205.984 268.042C205.562 267.843 205.046 267.743 204.434 267.743C203.902 267.743 203.427 267.826 203.01 267.993C202.593 268.155 202.253 268.385 201.989 268.681C201.729 268.973 201.567 269.316 201.502 269.709L201.495 269.751H202.704L202.711 269.73C202.808 269.438 203.001 269.214 203.288 269.056C203.575 268.894 203.943 268.813 204.393 268.813C204.953 268.813 205.372 268.936 205.65 269.181C205.933 269.422 206.074 269.774 206.074 270.238V272.572C206.074 272.929 205.981 273.248 205.796 273.531C205.615 273.813 205.365 274.038 205.046 274.205C204.726 274.367 204.36 274.448 203.948 274.448C203.512 274.448 203.151 274.344 202.864 274.135C202.577 273.922 202.433 273.626 202.433 273.246V273.232C202.433 272.862 202.563 272.574 202.822 272.371C203.086 272.167 203.503 272.049 204.073 272.016L206.679 271.849V270.884L203.927 271.05C203.348 271.083 202.855 271.189 202.447 271.37C202.039 271.551 201.729 271.801 201.516 272.12C201.303 272.435 201.196 272.815 201.196 273.26V273.274C201.196 273.728 201.305 274.122 201.523 274.455C201.745 274.789 202.044 275.046 202.419 275.226C202.799 275.407 203.225 275.497 203.698 275.497ZM212.744 275.504C213.467 275.504 214.088 275.349 214.606 275.039C215.13 274.728 215.53 274.286 215.808 273.712C216.091 273.133 216.232 272.447 216.232 271.655V271.641C216.232 270.886 216.096 270.233 215.822 269.682C215.554 269.13 215.171 268.704 214.676 268.403C214.18 268.097 213.597 267.945 212.925 267.945C212.55 267.945 212.2 267.998 211.876 268.104C211.556 268.211 211.271 268.366 211.021 268.57C210.771 268.774 210.56 269.026 210.389 269.327H210.278L210.299 269.174C210.391 268.494 210.544 267.942 210.757 267.521C210.97 267.099 211.264 266.787 211.64 266.583C212.019 266.379 212.499 266.265 213.078 266.242L213.842 266.208C214.277 266.184 214.674 266.133 215.03 266.055C215.387 265.971 215.623 265.874 215.739 265.763V264.693C215.415 264.823 215.083 264.92 214.745 264.985C214.407 265.045 214.088 265.082 213.786 265.096L213.036 265.131C212.369 265.163 211.795 265.297 211.313 265.534C210.836 265.77 210.444 266.122 210.139 266.59C209.838 267.053 209.615 267.644 209.472 268.362C209.328 269.075 209.256 269.929 209.256 270.925V270.939C209.256 271.94 209.386 272.778 209.645 273.454C209.909 274.131 210.301 274.643 210.82 274.99C211.338 275.333 211.98 275.504 212.744 275.504ZM212.744 274.434C212.267 274.434 211.86 274.325 211.521 274.108C211.188 273.885 210.933 273.568 210.757 273.156C210.581 272.739 210.493 272.239 210.493 271.655V271.641C210.493 271.081 210.581 270.606 210.757 270.217C210.933 269.828 211.188 269.531 211.521 269.327C211.86 269.119 212.267 269.015 212.744 269.015C213.221 269.015 213.627 269.119 213.96 269.327C214.298 269.531 214.555 269.828 214.731 270.217C214.907 270.606 214.995 271.081 214.995 271.641V271.655C214.995 272.239 214.907 272.739 214.731 273.156C214.555 273.568 214.298 273.885 213.96 274.108C213.627 274.325 213.221 274.434 212.744 274.434ZM221.325 275.497C222.039 275.497 222.652 275.342 223.166 275.032C223.681 274.717 224.077 274.27 224.355 273.691C224.637 273.112 224.778 272.424 224.778 271.627V271.613C224.778 270.812 224.637 270.122 224.355 269.543C224.077 268.964 223.681 268.519 223.166 268.209C222.652 267.898 222.039 267.743 221.325 267.743C220.617 267.743 220.003 267.898 219.484 268.209C218.97 268.519 218.571 268.964 218.289 269.543C218.011 270.122 217.872 270.812 217.872 271.613V271.627C217.872 272.424 218.011 273.112 218.289 273.691C218.571 274.27 218.97 274.717 219.484 275.032C220.003 275.342 220.617 275.497 221.325 275.497ZM221.325 274.427C220.853 274.427 220.452 274.316 220.123 274.094C219.794 273.871 219.542 273.552 219.366 273.135C219.194 272.718 219.109 272.215 219.109 271.627V271.613C219.109 271.02 219.194 270.515 219.366 270.099C219.542 269.682 219.794 269.364 220.123 269.147C220.452 268.924 220.853 268.813 221.325 268.813C221.798 268.813 222.198 268.924 222.527 269.147C222.856 269.364 223.106 269.682 223.278 270.099C223.454 270.515 223.542 271.02 223.542 271.613V271.627C223.542 272.215 223.454 272.718 223.278 273.135C223.106 273.552 222.856 273.871 222.527 274.094C222.198 274.316 221.798 274.427 221.325 274.427ZM231.727 267.875H225.668V268.876H228.093V275.365H229.302V268.876H231.727V267.875ZM233.471 275.365H236.146C237.003 275.365 237.686 275.136 238.195 274.677C238.705 274.219 238.96 273.603 238.96 272.829V272.815C238.96 272.042 238.705 271.426 238.195 270.967C237.686 270.508 237.003 270.279 236.146 270.279H234.68V267.875H233.471V275.365ZM236.146 271.28C236.637 271.28 237.026 271.419 237.313 271.697C237.605 271.975 237.751 272.347 237.751 272.815V272.829C237.751 273.292 237.607 273.665 237.32 273.948C237.033 274.226 236.641 274.365 236.146 274.365H234.68V271.28H236.146ZM240.266 275.365H241.475V267.875H240.266V275.365Z" fill="black"/>
<path d="M58.5159 401.253H62.1637C62.789 401.253 63.3426 401.126 63.8243 400.871C64.306 400.616 64.6835 400.264 64.9568 399.815C65.2348 399.361 65.3737 398.84 65.3737 398.251V398.237C65.3737 397.645 65.2348 397.123 64.9568 396.674C64.6835 396.22 64.3037 395.866 63.8173 395.611C63.3356 395.352 62.7798 395.222 62.1498 395.222H59.7666V392.352H64.3732V391.227H58.5159V401.253ZM59.7666 400.127V396.348H61.8371C62.5551 396.348 63.1086 396.512 63.4977 396.841C63.8915 397.165 64.0883 397.631 64.0883 398.237V398.251C64.0837 398.854 63.8868 399.317 63.4977 399.641C63.1086 399.965 62.5551 400.127 61.8371 400.127H59.7666ZM67.4026 401.253H68.6116L72.6067 395.222L71.7869 395.667H72.4261V401.253H73.6351V393.763H72.4261L68.4309 399.794L69.2508 399.349H68.6116V393.763H67.4026V401.253ZM78.5683 401.392C79.1519 401.392 79.6637 401.295 80.1038 401.1C80.5485 400.901 80.8936 400.625 81.1391 400.273C81.3892 399.921 81.5143 399.514 81.5143 399.05V399.036C81.5143 398.759 81.4564 398.508 81.3406 398.286C81.2294 398.064 81.0603 397.876 80.8334 397.723C80.611 397.57 80.3354 397.459 80.0065 397.39V397.279C80.3771 397.191 80.6759 396.994 80.9028 396.688C81.1298 396.382 81.2433 396.04 81.2433 395.66V395.646C81.2433 395.247 81.1391 394.898 80.9306 394.597C80.7268 394.291 80.428 394.052 80.0343 393.881C79.6452 393.71 79.1704 393.624 78.6099 393.624C78.1004 393.624 77.6442 393.705 77.2412 393.867C76.8428 394.025 76.5186 394.252 76.2684 394.548C76.0229 394.84 75.8701 395.187 75.8098 395.59L75.8029 395.639H76.9841L76.991 395.604C77.0512 395.303 77.2296 395.064 77.526 394.888C77.8225 394.712 78.1838 394.624 78.6099 394.624C79.0917 394.624 79.453 394.731 79.6939 394.944C79.9394 395.152 80.0621 395.416 80.0621 395.736V395.75C80.0621 396.139 79.9324 396.431 79.673 396.625C79.4182 396.815 79.05 396.91 78.5683 396.91H77.401V397.911H78.5683C79.1426 397.911 79.5781 398.008 79.8745 398.203C80.1756 398.393 80.3261 398.691 80.3261 399.099V399.113C80.3261 399.483 80.171 399.789 79.8606 400.03C79.5503 400.271 79.1195 400.391 78.5683 400.391C78.1143 400.391 77.7322 400.301 77.4218 400.12C77.1115 399.94 76.9169 399.697 76.8382 399.391L76.8243 399.335H75.5945L75.6014 399.391C75.6524 399.794 75.8122 400.146 76.0808 400.447C76.3495 400.743 76.6969 400.975 77.123 401.142C77.5538 401.309 78.0356 401.392 78.5683 401.392ZM88.4416 401.253H89.6505V393.763H88.4416V396.862H84.7313V393.763H83.5223V401.253H84.7313V397.862H88.4416V401.253ZM95.0909 401.385C95.531 401.385 95.927 401.329 96.2791 401.218C96.6358 401.102 96.9438 400.95 97.2032 400.76C97.4626 400.565 97.6733 400.35 97.8355 400.113C98.0022 399.873 98.118 399.625 98.1829 399.37L98.1968 399.314H96.9878L96.96 399.377C96.8952 399.525 96.7817 399.671 96.6195 399.815C96.4574 399.958 96.2513 400.076 96.0012 400.169C95.751 400.262 95.4569 400.308 95.1187 400.308C94.6648 400.308 94.2711 400.208 93.9376 400.009C93.604 399.805 93.347 399.516 93.1663 399.141C92.9857 398.761 92.8953 398.305 92.8953 397.772V397.292C92.8953 396.732 92.988 396.26 93.1733 395.875C93.3585 395.491 93.6087 395.201 93.9237 395.007C94.2433 394.807 94.6046 394.708 95.0076 394.708C95.4106 394.708 95.7672 394.803 96.0776 394.993C96.3879 395.178 96.6311 395.46 96.8071 395.84C96.9832 396.22 97.0712 396.704 97.0712 397.292V397.772L97.6687 396.889H92.2839V397.855H98.2871V397.383C98.2871 396.637 98.1551 395.984 97.8911 395.423C97.6317 394.858 97.2565 394.418 96.7655 394.103C96.2791 393.788 95.6954 393.631 95.0145 393.631C94.3382 393.631 93.7476 393.795 93.2427 394.124C92.7378 394.453 92.3464 394.909 92.0685 395.493C91.7952 396.077 91.6586 396.755 91.6586 397.529V397.536C91.6586 398.318 91.7952 398.999 92.0685 399.578C92.3464 400.153 92.7402 400.597 93.2497 400.912C93.7639 401.227 94.3776 401.385 95.0909 401.385ZM103.366 401.385C103.968 401.385 104.483 401.285 104.909 401.086C105.335 400.887 105.678 400.614 105.937 400.266C106.196 399.914 106.377 399.514 106.479 399.064L106.493 398.988L105.298 398.995L105.284 399.036C105.145 399.453 104.916 399.771 104.596 399.988C104.276 400.206 103.864 400.315 103.359 400.315C102.915 400.315 102.528 400.199 102.199 399.968C101.87 399.736 101.615 399.409 101.435 398.988C101.254 398.562 101.164 398.061 101.164 397.487V397.473C101.164 396.908 101.252 396.419 101.428 396.007C101.608 395.59 101.863 395.268 102.192 395.041C102.521 394.814 102.91 394.701 103.359 394.701C103.897 394.701 104.33 394.831 104.659 395.09C104.987 395.349 105.198 395.664 105.291 396.035L105.298 396.056H106.5L106.493 396.014C106.419 395.569 106.25 395.169 105.986 394.812C105.722 394.451 105.37 394.164 104.93 393.95C104.489 393.737 103.966 393.631 103.359 393.631C102.66 393.631 102.053 393.791 101.539 394.11C101.025 394.425 100.626 394.87 100.344 395.444C100.066 396.019 99.9269 396.695 99.9269 397.473V397.487C99.9269 398.279 100.068 398.967 100.351 399.551C100.633 400.134 101.032 400.586 101.546 400.906C102.06 401.225 102.667 401.385 103.366 401.385ZM108.23 397.779H112.899V396.653H108.23V397.779ZM117.172 401.385C117.51 401.385 117.821 401.339 118.103 401.246C118.386 401.149 118.638 401.007 118.861 400.822C119.088 400.637 119.28 400.412 119.437 400.148H119.548V401.253H120.757V396.125C120.757 395.606 120.646 395.162 120.424 394.791C120.206 394.416 119.884 394.129 119.458 393.93C119.037 393.73 118.52 393.631 117.909 393.631C117.376 393.631 116.901 393.714 116.484 393.881C116.067 394.043 115.727 394.272 115.463 394.569C115.204 394.861 115.041 395.203 114.977 395.597L114.97 395.639H116.179L116.186 395.618C116.283 395.326 116.475 395.102 116.762 394.944C117.049 394.782 117.418 394.701 117.867 394.701C118.427 394.701 118.847 394.824 119.125 395.069C119.407 395.31 119.548 395.662 119.548 396.125V398.46C119.548 398.816 119.456 399.136 119.27 399.419C119.09 399.701 118.84 399.926 118.52 400.093C118.2 400.255 117.835 400.336 117.422 400.336C116.987 400.336 116.626 400.232 116.338 400.023C116.051 399.81 115.908 399.514 115.908 399.134V399.12C115.908 398.749 116.037 398.462 116.297 398.258C116.561 398.054 116.978 397.936 117.547 397.904L120.153 397.737V396.771L117.401 396.938C116.822 396.971 116.329 397.077 115.921 397.258C115.514 397.438 115.204 397.689 114.99 398.008C114.777 398.323 114.671 398.703 114.671 399.148V399.162C114.671 399.615 114.78 400.009 114.997 400.343C115.22 400.676 115.518 400.933 115.894 401.114C116.274 401.295 116.7 401.385 117.172 401.385ZM128.018 401.253H129.227V393.763H128.018V396.862H124.308V393.763H123.099V401.253H124.308V397.862H128.018V401.253ZM133.667 401.385C134.005 401.385 134.316 401.339 134.598 401.246C134.881 401.149 135.133 401.007 135.355 400.822C135.582 400.637 135.775 400.412 135.932 400.148H136.043V401.253H137.252V396.125C137.252 395.606 137.141 395.162 136.919 394.791C136.701 394.416 136.379 394.129 135.953 393.93C135.531 393.73 135.015 393.631 134.404 393.631C133.871 393.631 133.396 393.714 132.979 393.881C132.562 394.043 132.222 394.272 131.958 394.569C131.698 394.861 131.536 395.203 131.471 395.597L131.464 395.639H132.673L132.68 395.618C132.778 395.326 132.97 395.102 133.257 394.944C133.544 394.782 133.913 394.701 134.362 394.701C134.922 394.701 135.342 394.824 135.619 395.069C135.902 395.31 136.043 395.662 136.043 396.125V398.46C136.043 398.816 135.951 399.136 135.765 399.419C135.585 399.701 135.335 399.926 135.015 400.093C134.695 400.255 134.329 400.336 133.917 400.336C133.482 400.336 133.12 400.232 132.833 400.023C132.546 399.81 132.402 399.514 132.402 399.134V399.12C132.402 398.749 132.532 398.462 132.792 398.258C133.056 398.054 133.473 397.936 134.042 397.904L136.648 397.737V396.771L133.896 396.938C133.317 396.971 132.824 397.077 132.416 397.258C132.009 397.438 131.698 397.689 131.485 398.008C131.272 398.323 131.166 398.703 131.166 399.148V399.162C131.166 399.615 131.275 400.009 131.492 400.343C131.715 400.676 132.013 400.933 132.389 401.114C132.768 401.295 133.195 401.385 133.667 401.385ZM141.352 398.321L141.63 394.763H144.235V401.253H145.444V393.763H140.546L140.226 398.224C140.203 398.594 140.152 398.93 140.073 399.231C139.999 399.527 139.89 399.764 139.747 399.94C139.603 400.116 139.415 400.204 139.184 400.204C139.096 400.204 139.01 400.199 138.927 400.19C138.843 400.176 138.786 400.164 138.753 400.155V401.246C138.804 401.265 138.876 401.281 138.968 401.295C139.061 401.313 139.172 401.322 139.302 401.322C139.719 401.322 140.069 401.216 140.351 401.003C140.638 400.79 140.863 400.461 141.025 400.016C141.192 399.571 141.301 399.006 141.352 398.321ZM147.82 401.253H149.029L153.025 395.222L152.205 395.667H152.844V401.253H154.053V393.763H152.844L148.849 399.794L149.669 399.349H149.029V393.763H147.82V401.253ZM161.863 393.763H155.804V394.763H158.229V401.253H159.438V394.763H161.863V393.763ZM163.607 401.253H164.816L168.811 395.222L167.991 395.667H168.63V401.253H169.839V393.763H168.63L164.635 399.794L165.455 399.349H164.816V393.763H163.607V401.253ZM173.813 397.841L176.746 401.253H178.295L174.696 397.181V397.397L178.163 393.763H176.711L173.813 396.896H173.431V393.763H172.222V401.253H173.431V397.841H173.813Z" fill="black" fill-opacity="0.4"/>
<rect x="41.3234" y="378.519" width="303.354" height="38.1617" rx="10.0255" stroke="black" stroke-opacity="0.2" stroke-width="0.646809"/>
<path d="M42.9733 363.74H46.2597C46.9731 363.74 47.5822 363.629 48.0871 363.407C48.592 363.18 48.9788 362.858 49.2474 362.441C49.5207 362.019 49.6574 361.517 49.6574 360.933V360.919C49.6574 360.479 49.5647 360.088 49.3795 359.745C49.1988 359.398 48.9417 359.115 48.6082 358.897C48.2747 358.68 47.8787 358.543 47.4201 358.487V358.376C47.7443 358.316 48.0362 358.182 48.2956 357.973C48.555 357.765 48.7611 357.508 48.9139 357.202C49.0714 356.896 49.1502 356.57 49.1502 356.222V356.208C49.1502 355.699 49.0297 355.259 48.7889 354.888C48.5526 354.513 48.2122 354.224 47.7675 354.02C47.3274 353.816 46.7994 353.714 46.1833 353.714H42.9733V354.819H45.9193C46.54 354.819 47.0217 354.96 47.3645 355.243C47.7119 355.521 47.8856 355.914 47.8856 356.424V356.438C47.8856 356.966 47.6934 357.364 47.3089 357.633C46.9291 357.901 46.3593 358.036 45.5997 358.036H42.9733V359.113H45.954C46.4867 359.113 46.9314 359.178 47.2881 359.307C47.6494 359.437 47.9204 359.632 48.101 359.891C48.2817 360.15 48.372 360.472 48.372 360.857V360.871C48.372 361.445 48.1774 361.883 47.7883 362.184C47.3992 362.485 46.8272 362.635 46.0721 362.635H42.9733V363.74ZM42.3479 363.74H43.5986V353.714H42.3479V363.74ZM53.7429 363.872C54.081 363.872 54.3914 363.826 54.674 363.733C54.9565 363.636 55.209 363.495 55.4313 363.309C55.6583 363.124 55.8505 362.9 56.008 362.635H56.1192V363.74H57.3281V358.613C57.3281 358.094 57.217 357.649 56.9946 357.278C56.7769 356.903 56.455 356.616 56.0288 356.417C55.6073 356.218 55.0908 356.118 54.4794 356.118C53.9467 356.118 53.4719 356.201 53.055 356.368C52.6381 356.53 52.2977 356.76 52.0337 357.056C51.7743 357.348 51.6121 357.691 51.5473 358.084L51.5403 358.126H52.7493L52.7563 358.105C52.8535 357.813 53.0458 357.589 53.333 357.431C53.6201 357.269 53.9884 357.188 54.4377 357.188C54.9982 357.188 55.4174 357.311 55.6953 357.556C55.9779 357.797 56.1192 358.149 56.1192 358.613V360.947C56.1192 361.304 56.0265 361.623 55.8412 361.906C55.6606 362.188 55.4105 362.413 55.0908 362.58C54.7712 362.742 54.4053 362.823 53.993 362.823C53.5576 362.823 53.1963 362.719 52.9091 362.51C52.6219 362.297 52.4783 362.001 52.4783 361.621V361.607C52.4783 361.237 52.608 360.949 52.8674 360.746C53.1315 360.542 53.5484 360.424 54.1181 360.391L56.7237 360.224V359.259L53.9722 359.425C53.3932 359.458 52.8999 359.564 52.4922 359.745C52.0846 359.926 51.7743 360.176 51.5612 360.495C51.3481 360.81 51.2416 361.19 51.2416 361.635V361.649C51.2416 362.103 51.3504 362.497 51.5681 362.83C51.7905 363.164 52.0892 363.421 52.4644 363.601C52.8443 363.782 53.2704 363.872 53.7429 363.872ZM59.6697 363.74H68.9246V356.25H67.7156V362.74H64.9016V356.25H63.6926V362.74H60.8786V356.25H59.6697V363.74ZM73.3645 363.872C73.7026 363.872 74.013 363.826 74.2955 363.733C74.5781 363.636 74.8305 363.495 75.0529 363.309C75.2798 363.124 75.4721 362.9 75.6296 362.635H75.7407V363.74H76.9497V358.613C76.9497 358.094 76.8385 357.649 76.6162 357.278C76.3985 356.903 76.0766 356.616 75.6504 356.417C75.2289 356.218 74.7124 356.118 74.101 356.118C73.5683 356.118 73.0935 356.201 72.6766 356.368C72.2597 356.53 71.9192 356.76 71.6552 357.056C71.3958 357.348 71.2337 357.691 71.1689 358.084L71.1619 358.126H72.3709L72.3778 358.105C72.4751 357.813 72.6673 357.589 72.9545 357.431C73.2417 357.269 73.61 357.188 74.0593 357.188C74.6198 357.188 75.039 357.311 75.3169 357.556C75.5995 357.797 75.7407 358.149 75.7407 358.613V360.947C75.7407 361.304 75.6481 361.623 75.4628 361.906C75.2822 362.188 75.032 362.413 74.7124 362.58C74.3928 362.742 74.0269 362.823 73.6146 362.823C73.1792 362.823 72.8179 362.719 72.5307 362.51C72.2435 362.297 72.0999 362.001 72.0999 361.621V361.607C72.0999 361.237 72.2296 360.949 72.489 360.746C72.753 360.542 73.1699 360.424 73.7397 360.391L76.3452 360.224V359.259L73.5938 359.425C73.0147 359.458 72.5214 359.564 72.1138 359.745C71.7062 359.926 71.3958 360.176 71.1827 360.495C70.9697 360.81 70.8631 361.19 70.8631 361.635V361.649C70.8631 362.103 70.972 362.497 71.1897 362.83C71.412 363.164 71.7108 363.421 72.086 363.601C72.4658 363.782 72.892 363.872 73.3645 363.872ZM83.4671 365.72V363.74H89.3244V365.72H90.45V362.74H89.2549V356.25H84.148L83.8562 360.426C83.8237 360.931 83.7357 361.399 83.5921 361.829C83.4485 362.256 83.2401 362.559 82.9668 362.74H82.3415V365.72H83.4671ZM88.0459 362.74H84.3634V362.629C84.5394 362.397 84.6784 362.091 84.7803 361.711C84.8822 361.327 84.9493 360.908 84.9818 360.454L85.218 357.251H88.0459V362.74ZM95.1052 363.872C95.8186 363.872 96.4323 363.717 96.9465 363.407C97.4606 363.092 97.8567 362.645 98.1346 362.066C98.4172 361.487 98.5584 360.799 98.5584 360.002V359.988C98.5584 359.187 98.4172 358.497 98.1346 357.918C97.8567 357.339 97.4606 356.894 96.9465 356.584C96.4323 356.273 95.8186 356.118 95.1052 356.118C94.3965 356.118 93.7827 356.273 93.264 356.584C92.7498 356.894 92.3514 357.339 92.0689 357.918C91.7909 358.497 91.652 359.187 91.652 359.988V360.002C91.652 360.799 91.7909 361.487 92.0689 362.066C92.3514 362.645 92.7498 363.092 93.264 363.407C93.7827 363.717 94.3965 363.872 95.1052 363.872ZM95.1052 362.802C94.6327 362.802 94.2321 362.691 93.9032 362.469C93.5743 362.246 93.3219 361.927 93.1458 361.51C92.9744 361.093 92.8888 360.59 92.8888 360.002V359.988C92.8888 359.395 92.9744 358.89 93.1458 358.474C93.3219 358.057 93.5743 357.739 93.9032 357.522C94.2321 357.299 94.6327 357.188 95.1052 357.188C95.5777 357.188 95.9784 357.299 96.3072 357.522C96.6361 357.739 96.8863 358.057 97.0576 358.474C97.2337 358.89 97.3217 359.395 97.3217 359.988V360.002C97.3217 360.59 97.2337 361.093 97.0576 361.51C96.8863 361.927 96.6361 362.246 96.3072 362.469C95.9784 362.691 95.5777 362.802 95.1052 362.802ZM102.255 360.808L102.533 357.251H105.138V363.74H106.347V356.25H101.449L101.129 360.711C101.106 361.081 101.055 361.417 100.976 361.718C100.902 362.015 100.793 362.251 100.65 362.427C100.506 362.603 100.319 362.691 100.087 362.691C99.999 362.691 99.9133 362.686 99.83 362.677C99.7466 362.663 99.6887 362.652 99.6562 362.642V363.733C99.7072 363.752 99.779 363.768 99.8716 363.782C99.9643 363.8 100.075 363.81 100.205 363.81C100.622 363.81 100.972 363.703 101.254 363.49C101.542 363.277 101.766 362.948 101.928 362.503C102.095 362.059 102.204 361.494 102.255 360.808ZM109.391 363.74L112.08 360.308H112.524V363.74H113.692V360.308H114.136L116.825 363.74H118.34L115.088 359.766L118.187 356.25H116.756L114.136 359.405H113.692V356.25H112.524V359.405H112.08L109.46 356.25H108.008L111.128 359.794L107.897 363.74H109.391ZM124.815 363.74H126.024V356.25H124.815V359.349H121.105V356.25H119.896V363.74H121.105V360.35H124.815V363.74ZM131.486 363.872C132.199 363.872 132.813 363.717 133.327 363.407C133.841 363.092 134.237 362.645 134.515 362.066C134.798 361.487 134.939 360.799 134.939 360.002V359.988C134.939 359.187 134.798 358.497 134.515 357.918C134.237 357.339 133.841 356.894 133.327 356.584C132.813 356.273 132.199 356.118 131.486 356.118C130.777 356.118 130.163 356.273 129.644 356.584C129.13 356.894 128.732 357.339 128.449 357.918C128.171 358.497 128.032 359.187 128.032 359.988V360.002C128.032 360.799 128.171 361.487 128.449 362.066C128.732 362.645 129.13 363.092 129.644 363.407C130.163 363.717 130.777 363.872 131.486 363.872ZM131.486 362.802C131.013 362.802 130.613 362.691 130.284 362.469C129.955 362.246 129.702 361.927 129.526 361.51C129.355 361.093 129.269 360.59 129.269 360.002V359.988C129.269 359.395 129.355 358.89 129.526 358.474C129.702 358.057 129.955 357.739 130.284 357.522C130.613 357.299 131.013 357.188 131.486 357.188C131.958 357.188 132.359 357.299 132.688 357.522C133.017 357.739 133.267 358.057 133.438 358.474C133.614 358.89 133.702 359.395 133.702 359.988V360.002C133.702 360.59 133.614 361.093 133.438 361.51C133.267 361.927 133.017 362.246 132.688 362.469C132.359 362.691 131.958 362.802 131.486 362.802ZM140.018 363.872C140.62 363.872 141.134 363.773 141.561 363.573C141.987 363.374 142.329 363.101 142.589 362.754C142.848 362.402 143.029 362.001 143.131 361.552L143.145 361.475L141.95 361.482L141.936 361.524C141.797 361.941 141.567 362.258 141.248 362.476C140.928 362.693 140.516 362.802 140.011 362.802C139.566 362.802 139.18 362.686 138.851 362.455C138.522 362.223 138.267 361.897 138.086 361.475C137.906 361.049 137.815 360.549 137.815 359.974V359.96C137.815 359.395 137.903 358.907 138.079 358.494C138.26 358.077 138.515 357.756 138.844 357.529C139.173 357.302 139.562 357.188 140.011 357.188C140.548 357.188 140.982 357.318 141.31 357.577C141.639 357.837 141.85 358.152 141.943 358.522L141.95 358.543H143.152L143.145 358.501C143.071 358.057 142.902 357.656 142.637 357.299C142.373 356.938 142.021 356.651 141.581 356.438C141.141 356.225 140.618 356.118 140.011 356.118C139.312 356.118 138.705 356.278 138.191 356.598C137.677 356.913 137.278 357.357 136.996 357.932C136.718 358.506 136.579 359.182 136.579 359.96V359.974C136.579 360.766 136.72 361.454 137.003 362.038C137.285 362.622 137.683 363.073 138.198 363.393C138.712 363.712 139.319 363.872 140.018 363.872ZM150.128 356.25H144.069V357.251H146.494V363.74H147.703V357.251H150.128V356.25ZM151.872 363.74H154.547C155.404 363.74 156.087 363.511 156.596 363.052C157.106 362.594 157.361 361.978 157.361 361.204V361.19C157.361 360.417 157.106 359.801 156.596 359.342C156.087 358.883 155.404 358.654 154.547 358.654H153.081V356.25H151.872V363.74ZM154.547 359.655C155.038 359.655 155.427 359.794 155.714 360.072C156.006 360.35 156.152 360.722 156.152 361.19V361.204C156.152 361.667 156.008 362.04 155.721 362.323C155.434 362.601 155.042 362.74 154.547 362.74H153.081V359.655H154.547Z" fill="black"/>
<defs>
<clipPath id="clip0_2905_3569">
<rect width="354" height="44.368" fill="white" transform="translate(15 4)"/>
</clipPath>
</defs>
</svg>
