<svg width="24" height="24" viewBox="0 0 24 24" fill="none" xmlns="http://www.w3.org/2000/svg">
<path fill-rule="evenodd" clip-rule="evenodd" d="M18.9838 9.85258C18.9119 9.77585 18.8257 9.71404 18.7299 9.67066C18.6342 9.62728 18.5308 9.60319 18.4258 9.59978C18.3207 9.59636 18.216 9.61368 18.1177 9.65074C18.0193 9.6878 17.9292 9.74389 17.8526 9.81578L11.9998 15.3038L6.14697 9.81578C5.99208 9.67065 5.78589 9.593 5.57375 9.5999C5.36161 9.6068 5.16089 9.69769 5.01577 9.85258C4.87064 10.0075 4.79299 10.2137 4.79989 10.4258C4.80679 10.6379 4.89768 10.8387 5.05257 10.9838L11.4526 16.9838C11.6009 17.1228 11.7965 17.2002 11.9998 17.2002C12.203 17.2002 12.3987 17.1228 12.547 16.9838L18.947 10.9838C19.0237 10.9119 19.0855 10.8257 19.1289 10.7299C19.1723 10.6342 19.1964 10.5309 19.1998 10.4258C19.2032 10.3208 19.1859 10.2161 19.1488 10.1177C19.1117 10.0193 19.0557 9.92925 18.9838 9.85258Z" fill="black"/>
</svg>
